<mxfile host="app.diagrams.net" modified="2023-05-07T01:11:17.025Z" agent="Mozilla/5.0 (Macintosh; Intel Mac OS X 10_15_7) AppleWebKit/537.36 (KHTML, like Gecko) Chrome/112.0.0.0 Safari/537.36" etag="xDZWCTgeiLLz-Pfye2kg" version="21.2.7" type="github">
  <diagram id="-ohBLE8x-Wnpsi6ogWC7" name="第 1 页">
    <mxGraphModel dx="1088" dy="657" grid="0" gridSize="10" guides="1" tooltips="1" connect="1" arrows="1" fold="1" page="1" pageScale="1" pageWidth="827" pageHeight="1169" background="none" math="0" shadow="0">
      <root>
        <mxCell id="0" />
        <mxCell id="1" parent="0" />
        <mxCell id="9lgOkb08AptDUNzohUUL-1" value="" style="rounded=0;whiteSpace=wrap;html=1;fillColor=none;" parent="1" vertex="1">
          <mxGeometry x="104" y="450" width="620" height="340" as="geometry" />
        </mxCell>
        <mxCell id="SR0VA5SI1RpmBbKCay9N-19" value="" style="rounded=0;whiteSpace=wrap;html=1;dashed=1;dashPattern=8 8;fillColor=none;" parent="1" vertex="1">
          <mxGeometry x="370" y="50" width="340" height="320" as="geometry" />
        </mxCell>
        <mxCell id="SR0VA5SI1RpmBbKCay9N-4" value="" style="edgeStyle=orthogonalEdgeStyle;rounded=0;orthogonalLoop=1;jettySize=auto;html=1;" parent="1" source="SR0VA5SI1RpmBbKCay9N-2" target="SR0VA5SI1RpmBbKCay9N-3" edge="1">
          <mxGeometry relative="1" as="geometry" />
        </mxCell>
        <mxCell id="SR0VA5SI1RpmBbKCay9N-5" value="访问" style="edgeLabel;html=1;align=center;verticalAlign=middle;resizable=0;points=[];" parent="SR0VA5SI1RpmBbKCay9N-4" vertex="1" connectable="0">
          <mxGeometry x="-0.2286" y="-1" relative="1" as="geometry">
            <mxPoint y="1" as="offset" />
          </mxGeometry>
        </mxCell>
        <mxCell id="SR0VA5SI1RpmBbKCay9N-2" value="用户" style="html=1;verticalLabelPosition=bottom;align=center;labelBackgroundColor=#ffffff;verticalAlign=top;strokeWidth=2;strokeColor=#0080F0;shadow=0;dashed=0;shape=mxgraph.ios7.icons.user;" parent="1" vertex="1">
          <mxGeometry x="30" y="160" width="50" height="50" as="geometry" />
        </mxCell>
        <mxCell id="SR0VA5SI1RpmBbKCay9N-18" value="" style="edgeStyle=none;rounded=0;orthogonalLoop=1;jettySize=auto;html=1;" parent="1" source="SR0VA5SI1RpmBbKCay9N-3" target="SR0VA5SI1RpmBbKCay9N-12" edge="1">
          <mxGeometry relative="1" as="geometry" />
        </mxCell>
        <mxCell id="SR0VA5SI1RpmBbKCay9N-24" value="HTTP" style="edgeLabel;html=1;align=center;verticalAlign=middle;resizable=0;points=[];" parent="SR0VA5SI1RpmBbKCay9N-18" vertex="1" connectable="0">
          <mxGeometry x="-0.0911" y="3" relative="1" as="geometry">
            <mxPoint as="offset" />
          </mxGeometry>
        </mxCell>
        <mxCell id="SR0VA5SI1RpmBbKCay9N-3" value="Web浏览器" style="points=[];aspect=fixed;html=1;align=center;shadow=0;dashed=0;image;image=img/lib/allied_telesis/computer_and_terminals/Personal_Computer.svg;" parent="1" vertex="1">
          <mxGeometry x="150" y="154.1" width="45.6" height="61.800000000000004" as="geometry" />
        </mxCell>
        <mxCell id="SR0VA5SI1RpmBbKCay9N-8" value="MySQL" style="shape=image;verticalLabelPosition=bottom;labelBackgroundColor=default;verticalAlign=top;aspect=fixed;imageAspect=0;image=data:image/png,iVBORw0KGgoAAAANSUhEUgAAADAAAAAwCAYAAABXAvmHAAAACXBIWXMAAAsTAAALEwEAmpwYAAAGOElEQVR4nO2XbWhb1xnHn3vOuZJsWU5LNkq2QdotoZRug9GxNwgMChtsKduXdGG00HY0y1yrluTYsnV179HLfX+Tru04uW1GWcv6IdQb+7BRlq3QUtiHBrqFSXlr1jbJ5jpO3MSJ7TkvO+MoiecXuYR+GAroBw869z5/Hf3/90q65wC0adOmTZs2bdrcRQRBt+gHfxArI2+QSpCBMBThrsL3N4mVwIcgiBJ/tE+sBG8TP3iF+NXdYFkJuBsQK0GBBMF3lk6Mjm4UverTolt9Ezv+Y9DyhKFI3ODXwJgAUs9mGOr9SeO853Vgxx/Htqc1eq0M8So/x7b/vcYBD7G8Z3kD2HAr0NLwq235B9Zr8wDIcHdBK0Mstw9b7qNNm2EoIs3+CxjG/dCyHDyIse68uF4bq+b3cckcg5bFsh5EutOzbp8xARW1d0DXN0IrgjTncaKa3/pEjVJ+GsvFArQiSDN/Sor6N6FkPoSKeqapiNIIGqZHIJvdAK2GWDIeQQXtZ1hRLaSU/wppr6OZDmXzzwiD0m9gaGgLtBZMwHLxV0gqvIVzxcdQTqHrSjPZrwn9WU9ID1hAaQxahiy9H+Xyz/AhyuafgIH81k/Up9NbhGRmFHrSrXY3bjEwsJV/76EZPamHUW9qUOhNh0Jv6vdAKQLijXxD9KoO8YIsfzo2ex/x/W2iV6kSp9oL9KU7un2MAmK/7H6cHej22YEN4Y0Xb1civB4m9nDN1f3dX78WdrvXwkR4lde+RPjvfYlwcV/CWAzjX+Gahf1du+fH4+HCWPcWIZlyhd70y9DfH1/6INGrTotulfHCbsVd48QMvkAcf444PiO2z0TLv6PH+9Uw8erVMMEW9yf2LoZdOxo1frMW9sW/Oz8W2zy/t2txfm/84txYvHd+vGvH/GjXjsuj8b7LY/ErsyPxhY9Hog9cGu2cmB3pZLMjsW1AKRGSqVEhmXoNenq6bl5dp8KI453Hll8jtj/LNxzLjWDTNYnlMWx6f+OvxHSlOwkwP9Y1Nbc3zlgITTcsl6qdP7g00skuBh2vrO7NVGMvzFQ72IVqx44LfnTiQiXGzvmxbUuC55//MkpmJNiV3cBXfoyY3rRoubuI6TFiuH1LQjrWRQx3hujuJDGcLDYchnRbQrqzG2nOIaytXMdg1RpHmnUINO2+i0Hn2YtBJ7tcjd/XLMBMNbL9vB9j037spdW9j9xoMOVG2aQj7py0oxOTToT90yL/C3CbVOqLQAyXEd2e5n9NWLOnsGafbPw4Gg8aO4k1myHNyiHVTjXGqi1h1fSxajGkGU8snw+VjMO4ZDAolzef86LPTnuxK1Nu5MNzbuTQFC8n8seP7Ghw3uv4/KQV2T5pc2ORNQHOGmJw1hTZaVPcedogE6cNwj7UmgRoXDXNZlizpm+OLZUbw6r5Qx4Cl62TuGzO8bUIKuopbg4VdAkXdR8XNYaotjKAUj6MlTIDqdxY358IIHrGFr/6L0N8hNdZk9AzpsjOGOR3H+h4Ozf2gY7XBHhfxdV/qJi9r6Gdp8po4lQZs1NFWCdA2WS4pDcCgKpuwkV9ERW01zHVfowLKsNUHWmYk9UUN4eUkoTloo/lIkP50soAOXoY5ygDSVqxQVkyVoKHuLH3yuitUyW8/b0yYieLwpoAxwtC5XhBYMcp7DxWECaOUYHV5PUCUJVhuTy9dJwvvYzlwn9wvngU5+l1kMpfumUuxc2hnCLhYbmEh2WGsvmBFQEGc4fRoMSgv3mAY0X4ETfGTdVl+PZRCqxO4cjpNHScGIbP1hX4U12Bek2Gd+oKcNOP1mR44dZ4d/MAEmV4WFkKAPn8VjycP4Oy+RtCVtKXmUtxc2gwJ0GGfkYYGD6I9gxfQXuyH6P+oRmUGZxB/dnrKJNl0N+/uS7DyboCM8urpsB8XYbf1nOwiQEINRn0ugwXajIsNDQyzHGzDcMKvP13CpFjEjxQl+HPXFNTYHb1nABDQ/dCH72nSbaVm+pkMtrQrl6H8FXiL/gcAw+ivswkSqZvwHPPbXyXwj1HhuDe28WPm15BADhBofu27iiFz9UUeKMuw7WjeXhquW71nLzg0yAk0xpKpmbWVG/6XZRMPfmpJm3Tpk2bNm3atIH/O/8F3QzYxkVGwuEAAAAASUVORK5CYII=;" parent="1" vertex="1">
          <mxGeometry x="584" y="70" width="60" height="60" as="geometry" />
        </mxCell>
        <mxCell id="SR0VA5SI1RpmBbKCay9N-15" style="rounded=0;orthogonalLoop=1;jettySize=auto;html=1;exitX=1;exitY=1;exitDx=0;exitDy=0;entryX=0;entryY=0.5;entryDx=0;entryDy=0;" parent="1" source="SR0VA5SI1RpmBbKCay9N-11" target="SR0VA5SI1RpmBbKCay9N-13" edge="1">
          <mxGeometry relative="1" as="geometry" />
        </mxCell>
        <mxCell id="SR0VA5SI1RpmBbKCay9N-22" value="blot" style="edgeLabel;html=1;align=center;verticalAlign=middle;resizable=0;points=[];" parent="SR0VA5SI1RpmBbKCay9N-15" vertex="1" connectable="0">
          <mxGeometry x="0.0794" relative="1" as="geometry">
            <mxPoint as="offset" />
          </mxGeometry>
        </mxCell>
        <mxCell id="SR0VA5SI1RpmBbKCay9N-11" value="Python Web" style="shape=image;verticalLabelPosition=bottom;labelBackgroundColor=default;verticalAlign=top;aspect=fixed;imageAspect=0;image=data:image/png,iVBORw0KGgoAAAANSUhEUgAAADIAAAAyCAYAAAAeP4ixAAAACXBIWXMAAAsTAAALEwEAmpwYAAADIElEQVR4nO3XbcjfUxzH8dc2dK0hxojcZdawGObC3JW7ctvQRhRNbtMiJPLA5p7N0J54QimZmzBs7h/oSpGiPTBGIpI1NUrygG3o1Odfv/5+u/5/rj34N+ddV9fvnN/5/c75nO/3fL6/P5VKpVKpVCqVyv+R/TDJNsBDOB9DfY6f0OP+rrgTC8a4rmG8isP7GVwi8Rm+wnM4rI/xH2ATPsRLeB8/4YuMuRmbce8YREzAC/gLs/t54HT8hmdwPTZgKfbokYplggsafVPwSqNdRN5tbEzCnziu18Dp2ckfs6u34UwcgXl4EZNbntuxRUhhu8b1a1tBiES+p5CXsRhn569E5BbMx1zsiQP6FHJq15gi5B5bR8jsXoNKfo9gbSJyMXbANJw1ynMdIUsTudvxcIuQ5hnZGQ/iWfyAyxr39sfreAPf4NwuIcfjKLyZ9T6FXZqTlYn+wLe4GjPSvztO6EPI47gmJrGwRch9jXZxsSdzvQhvNe4twf25LmZzRYuQgyK0Nc2OzcCRpElpdzitDyHFsju7fWGLkM7immyPx/Buo+/yrKNEa2rX+E15z4au9f3D4t7B17gW++LknJd5/0JIG0XIA432jKTEsthqMyKFE/EJfsclXUKW4228N1oNuxW/4hGsTPEptjdzlGo/pQ8hK2MkhXFYn80q3JCFdZiT/+PxREyo096czd0bPyearRyKz7EGV8WlyoGfiFO2kBp3RcgqnNMypuTz9/iykXKrU3gfxYqczXLGCh/j+RTSYjoXpf/KzLM8JaHUvI0xqTPaxCzJA2uTaqsSwkXZze5aMSvOdiQOaXnfgZn0mIaB7BSL3ivtqY13l02blY3r3Jf3H517nf6ZMaJ9bGEHy058h0vxacI5NNoBG1TmYF2iUrz86aTYcL/fOoPCeFwX5xhJfq9OGOd3FbCBZyJuTOX9Jd5dDuJuMYW5XYWyFKeTDCjjcFM+B9bH18v5uSP9i1PFl6XSLki0SoU/zwAyOUVqYeMbaE3ErYvLbUwN+ih1o1MnBpah2Oj0fAsNR+TB28pP5EqlUqlUKpVKpVLxH/gbR4StD37x4x4AAAAASUVORK5CYII=;" parent="1" vertex="1">
          <mxGeometry x="440" y="155.9" width="60" height="60" as="geometry" />
        </mxCell>
        <mxCell id="SR0VA5SI1RpmBbKCay9N-17" value="" style="edgeStyle=none;rounded=0;orthogonalLoop=1;jettySize=auto;html=1;" parent="1" source="SR0VA5SI1RpmBbKCay9N-12" target="SR0VA5SI1RpmBbKCay9N-11" edge="1">
          <mxGeometry relative="1" as="geometry" />
        </mxCell>
        <mxCell id="SR0VA5SI1RpmBbKCay9N-23" value="HTTP" style="edgeLabel;html=1;align=center;verticalAlign=middle;resizable=0;points=[];" parent="SR0VA5SI1RpmBbKCay9N-17" vertex="1" connectable="0">
          <mxGeometry x="-0.0441" y="1" relative="1" as="geometry">
            <mxPoint as="offset" />
          </mxGeometry>
        </mxCell>
        <mxCell id="SR0VA5SI1RpmBbKCay9N-12" value="Node JS" style="shape=image;verticalLabelPosition=bottom;labelBackgroundColor=default;verticalAlign=top;aspect=fixed;imageAspect=0;image=data:image/png,iVBORw0KGgoAAAANSUhEUgAAADAAAAAwCAYAAABXAvmHAAAACXBIWXMAAAsTAAALEwEAmpwYAAAE0ElEQVR4nO1ZaYhbVRR+03Hfd6mO8859M7XSH1Up/hCKFRUR0T8t0boWJznnzVTb0l+KaEcQcV+Kv4KtM++chEIQoS4V/OGCtYoLImqpIrgUB63SsVrrUtvIecnEl5tM5k0mmTylH4Q8knfv/b5771nuuY5zCP9TnJun07wc3Wg4c5PHg2c4/xX0FNYeDUx3AuOvRqioH2D60witn79h4HgnyTBM1xrBryaI13yYvgMmcoaH5zhJQl8+swgYt1pk/wbBZ0Fwgz5H/wOht43gRYnY57o1bIJG6A03l7lg4j03T+cZpi2WwINGqNC3aeicWSe+KEuHg+AaYNxTNbNMO4H9W52i0zXZFgOhLy2xe43gfe7IiqNmhbwJ8AojtN0i8ZuSUANuXjx+G4pvFxptA8gNuNPtr1dorhHMGsEDVp+vmdH0wpYR780Pnaz7HBj3W9vlAy+gxS1xAEJvVa9oKIr7N952etMdL3l9+DB1eSC0y5qhsZa7wqLTZZhShunr6rFwt8aUBYXUEdPqT5WD4PvVrg//AKYHFxRWHue0CWfyzccawfsN4z5rtd87K7j91NgdgVDOmvXne/NDnjNLcEd8UNuytlUQuwNg+rm8hPs8ocvbyrYBIMAlJTcbihh34iISMT91WuTBQDLXhTbFtFq/Xaarekb9s6fkwvTRBJ+2CND9Wfbje9TwK38UUt0e01CdwFW0vZlhXNY5ARGClWhaSHWr3TQiXisEH0+MACO40iK3FYTuNYIDkKPr3YAGlbCx3WYuc01CBNC7EfIPNEorTGSlQPDVZAhgGqv8FtDFjdsPzi+nJDreL3Yi2CEB+Flka0yZMoPgGiP4EAiuS4QAjdh1jPQLEHpOtxQEeIsbDF4YJ0XoiIBySrAthufZD4KfGKFH+zjdnxgBkbzfN0zv1KTMk4lhWp0YAVHo75rjhxmn0N16VjaMb6rRWvnOAfusPOsCtAZUTo1Temhp1LZ//aoj1feD0DcRIQ93VIBhvCMyo9k44wHTPREB3FEBXuBfXSHDNKYGHUPAM//aAj3WUQHlytz3kVXY5nHmsqpEL5L3g+C6aFlG3+2ogNKguKye5wGmHw3jjrAN4+463qiQGC8UGifTzqncp6nEA3q6XmDrqBvVWOAFtFTJhRlpKRrv0pUAoc+B6UVP6K5ezphJuTQpYLzc6Pd6KW5cATMFCF1ZKpqVKhSxGxqhESvAvKLHwpoXi05XtOyiM94K4l7enweCL1j2szF2Bz2F9Cl2tRmE/jKMT2qhqzJQQEujBjpT4v2y6gTD+Ej5PqHqQBQdNx4KqW7IZRAEf7CMbq9h2gxML1kD1XiQ2BgenmPYT1e733DS1F5IuTTdt1egEzW42LNSW/Tyz2+q/4AWhwd7a7VB6Al3ZMVJTROvGSjvzzNMTxnBnywB213xL51uf3rIMUKbJk5jkcl4WU9pTrsQJmCj6YWQo0smy+EbYW6WjtFSfMW7yETagTs0DXE6Ab28M4xrQehjrTjULfwWnS6XcbneA1grOK5tW+XBpg29GwhThKrZpA+jh/m6JfQw/8HsjErorYIWftUzWQQPAqNoUbZOXlR1h5YYaCHYqkgUp3OHlghU7sCqj4ux79ASA43mnvg3qOHqc6f5HILTJvwDFDl0Rr2QsrgAAAAASUVORK5CYII=;" parent="1" vertex="1">
          <mxGeometry x="290" y="155.5" width="59" height="59" as="geometry" />
        </mxCell>
        <mxCell id="SR0VA5SI1RpmBbKCay9N-13" value="Neo4J" style="shape=image;verticalLabelPosition=bottom;labelBackgroundColor=default;verticalAlign=top;aspect=fixed;imageAspect=0;image=data:image/png,iVBORw0KGgoAAAANSUhEUgAAADAAAAAwCAYAAABXAvmHAAAACXBIWXMAAAsTAAALEwEAmpwYAAAH8klEQVR4nM2ZfXDT5h3HtY69/LPdut1AspSwcht3zW67dd1WOsv2aikQNtpCZ9kuhdi5sI7L2uPorjiOFSuUJJKhIUfHEefFiQlxXmxLpmkaQh5l7DpujJRy+6P9ox2s626lZWspLS0tJLF3susgx5IsJ2bwu3v+kmx9P783Pc9PEKTDnGFLs73b9B4VNCbdAvmpWyDP1vDEzifHq74C3c7GMJZlzpDpdVuHMZVdboGUr7OuqAVGmFEcoflRxBc9D3uHr6LN4+9jLEhinJiSFsqCd1AWvISxIFjWChxwy/i3/y8Ajl7Tn+XiFQBSbp78i8EvtMC7BlKZNTiHNh+bRjnxWhYgb7HiLMaKL2ABcSPEMHfcFPFbD5vvoYK54hUBBDK1NbF2M1w/dB32DM5gDVFU+n1Z69RaVQDZQlnwKspNPgKlUl8oKYAzbB5YKF4NwC0QUcQXew3xDr+T/f1K5sRXpTRCWXECC0xaMBY8jXHinAYMKGfBqtIB9JpO6QVwCeQ04ouL8K5ICvHzT97beeZLKCfukYTB+6ZWZv8T48SxvAhw4F2MBTGUBc0oO0WVDMDRZ5osAgAgdOxUtg7Q5mPznjaw4J55AFY8lUkb8e3yfS+0VQXdffaQ6Q2qG//Q3mm8tmXEes4tkMdcPLnHzVt/vCQAZ59pexEpRMPekUsyALmH30RZ0JT2Pgs+uosb8zn6Hhi1dRrnFv539Yg11zE8+VLN0cr7Fg1h78EvFwJwCeTl1a29DtiT7UK5ALLO84b5UP1D9m78ipJjbAoAn3e5pIsnmooWj9Dxg/e3+WuoLuOMOgBxzTm4ySb3vhKAFIX1XdusVKdxVk28TQ3gxrPa9Ytvev7RtBjP4Mz3A/vqHN34PxcCuATylQf7t1TB3ui/5OLzAcBMxf5eq70L/0RLvK0gAJlyJay1ugBg7/DlG4IiKcQX/2sF99wTjtADTa7E2o0/a2MpQyN/RAJcKD4PgBXDzl4zKCTepgdAIK/UPm9doe39RuFZJVHSQjyRNJDadSWAn7Y/u47qMCZLAeDWk0qId/hKjiBPJGlo5CNII38I9gwpelwNAOXE886wuUePeJt+gItUlPqiovgVu/lf5Xmdjk3Nw/mE/UUChBw9pn+XFoCU2usaZe/7bryM5gF80ensdQMt9BQHAOrtXfjVUgNU80S1cgS8Q1cVc98XO4P4Yn+U0qkoABY8TgXzX1hLjkDCuitPfDk7dmemSJVERVKwd+gzPeJzijgA6qhO/FqpAdwC+UR++vjjtSrikwYm8fN0CjUKzxUFwIqt9m78g9KnUOUmBQC+QzF9Gob/k71nJZP4RlEAnDjmCJlPlhSAJ5PbeAuWB2Cg+UHl3j+QhJn4LzMR4PuLrIGrDx/eVFdigNPKHYiOj2kKqx+cLboG0p1o8jd606haB4CLtzrVAI4VALgONwy/pacTLdjMvUX1Vf7O1oEvHYAnT0MpSPnoCdPxLi3vL28R03sQg5+vKRJAKuYDzpB5YkkAPPneVmH9akjNVviFp1VFeYc/yN5XXj92p3zvrw8AJLHA5DZHyPzK4gCIi+vCOx7CODGuCrCciZNaohCabytn4qsQOn666Ahk1hzKgp3OPsthWxBP6gcgTla097sxVrwo7a1UAaSxhv5CjSwGIBuNceMfWiqdIdM0FcRnlQBcPDnj5skT649s34ayYEh2MDquDiAVckP0XEHxdPw4xKTuMPiPSrWQLBrg80MOxoEj2N6JKipUtcUZNu919OLxx6LWHY6hjRu+1y48Il1HWXA9d4YkNmgD0PGDhQAwZuKb2fth78iFxQHkHDc/lc7LKCdOY5z4OsqKn6lELmloBepFfONNOzinBWCgBUa618C8uDon5dKFHUlK+6liALBMlxKl+siOXVQmeJOa4mVROKFZzJ5IKnPoiSSlcSLi40d/yLU/RYWtHmf4F3vdcXKdObj7fpQF1VLOFh4tim9XMNEvS8/+VuDk1zBW/FjJ+2WByZ/oAoCfGbtbLbflRYzQsfive4mAvcv0UbYIqSAu7yCvuhLE499pGbWgrPgPDc+ey85FMxM9cEkhQiO6xM9HwReLqYr3RJKrngnvcPTgFxa2wQUA2XW2smvHjzBOPKvUWrFMHXQbAmADxoGoQoTeN+yZKCsKAGKYZbmTCVmBMpEmqgv/WKmPqwBIvfyCsat5DcaC/853ofRo/cQylBN/q9Fyk2UseBhajC1vTBDpPJcDNMT+5giZ/q72JlUHkLYCxJkyqVAzXn1Z/ixsHiwvdQ5ASzHYz++Upw55qKZeayugCSCQqc2xDdullEA58TLWLKa/I2Ac+IHy2B1EoWhUefpQjBloPiC1SMQXfdPeYzq/FACXQLycfoFl8v5S+rMTJ36S/24Qj0oFDZXK4MbYdoROeCiVPYxeAOk0tXo/v7NAWx347oHx0n883NJfeVeh7XBBAIFM3dfRVqe2vUBZ0QPdLNscxu8tBQAZ+n2NwnbiNQM3lR4c3DSTvgmXAmBNcPeDslw/L7XRkua7lhUakReuAeLDuw/GV2IsoJGW48aSf5ksZM6w6cUlRmAAupVWO2hdoTUq1AYgZmuOWiugW22PHsZb1SYMWgAugfRDt4ttDluixQC4BKJbdRxyq8zZb6GpTnxGE4AnLrl5og66Xe2xI1Vfd/aZeu09+LvSF0iqE09KO08XT/zJLRBP1UbXzh8/b5b9D/fRGmLs7B/EAAAAAElFTkSuQmCC;" parent="1" vertex="1">
          <mxGeometry x="590" y="240" width="48" height="48" as="geometry" />
        </mxCell>
        <mxCell id="SR0VA5SI1RpmBbKCay9N-16" style="rounded=0;orthogonalLoop=1;jettySize=auto;html=1;exitX=1;exitY=0.25;exitDx=0;exitDy=0;entryX=0;entryY=0.75;entryDx=0;entryDy=0;" parent="1" source="SR0VA5SI1RpmBbKCay9N-11" target="SR0VA5SI1RpmBbKCay9N-8" edge="1">
          <mxGeometry relative="1" as="geometry">
            <mxPoint x="500" y="163.5" as="sourcePoint" />
            <mxPoint x="590" y="217.5" as="targetPoint" />
          </mxGeometry>
        </mxCell>
        <mxCell id="SR0VA5SI1RpmBbKCay9N-21" value="pymysql" style="edgeLabel;html=1;align=center;verticalAlign=middle;resizable=0;points=[];" parent="SR0VA5SI1RpmBbKCay9N-16" vertex="1" connectable="0">
          <mxGeometry x="0.1506" relative="1" as="geometry">
            <mxPoint as="offset" />
          </mxGeometry>
        </mxCell>
        <mxCell id="9lgOkb08AptDUNzohUUL-2" value="" style="rounded=0;whiteSpace=wrap;html=1;fillColor=none;" parent="1" vertex="1">
          <mxGeometry x="104" y="450" width="620" height="90" as="geometry" />
        </mxCell>
        <mxCell id="9lgOkb08AptDUNzohUUL-3" value="" style="rounded=0;whiteSpace=wrap;html=1;fillColor=none;" parent="1" vertex="1">
          <mxGeometry x="104" y="540" width="620" height="80" as="geometry" />
        </mxCell>
        <mxCell id="9lgOkb08AptDUNzohUUL-4" value="前端" style="text;html=1;strokeColor=none;fillColor=none;align=center;verticalAlign=middle;whiteSpace=wrap;rounded=0;fontSize=18;" parent="1" vertex="1">
          <mxGeometry x="114" y="480" width="60" height="30" as="geometry" />
        </mxCell>
        <mxCell id="9lgOkb08AptDUNzohUUL-5" value="" style="rounded=0;whiteSpace=wrap;html=1;fillColor=none;" parent="1" vertex="1">
          <mxGeometry x="104" y="950" width="620" height="80" as="geometry" />
        </mxCell>
        <mxCell id="9lgOkb08AptDUNzohUUL-6" value="" style="rounded=0;whiteSpace=wrap;html=1;fillColor=none;" parent="1" vertex="1">
          <mxGeometry x="104" y="790" width="620" height="160" as="geometry" />
        </mxCell>
        <mxCell id="9lgOkb08AptDUNzohUUL-7" value="展示层" style="text;html=1;strokeColor=none;fillColor=none;align=center;verticalAlign=middle;whiteSpace=wrap;rounded=0;fontSize=18;" parent="1" vertex="1">
          <mxGeometry x="124" y="565" width="60" height="30" as="geometry" />
        </mxCell>
        <mxCell id="9lgOkb08AptDUNzohUUL-8" value="应用服务层" style="text;html=1;strokeColor=none;fillColor=none;align=center;verticalAlign=middle;whiteSpace=wrap;rounded=0;fontSize=18;" parent="1" vertex="1">
          <mxGeometry x="114" y="650" width="100" height="30" as="geometry" />
        </mxCell>
        <mxCell id="9lgOkb08AptDUNzohUUL-9" value="数据存储层" style="text;html=1;strokeColor=none;fillColor=none;align=center;verticalAlign=middle;whiteSpace=wrap;rounded=0;fontSize=18;" parent="1" vertex="1">
          <mxGeometry x="114" y="870" width="100" height="30" as="geometry" />
        </mxCell>
        <mxCell id="9lgOkb08AptDUNzohUUL-10" value="服务端" style="text;html=1;strokeColor=none;fillColor=none;align=center;verticalAlign=middle;whiteSpace=wrap;rounded=0;fontSize=18;" parent="1" vertex="1">
          <mxGeometry x="124" y="975" width="60" height="30" as="geometry" />
        </mxCell>
        <mxCell id="9lgOkb08AptDUNzohUUL-11" value="windows 服务器" style="rounded=1;whiteSpace=wrap;html=1;fontSize=18;fillColor=#fff2cc;strokeColor=#d6b656;" parent="1" vertex="1">
          <mxGeometry x="224" y="970" width="460" height="40" as="geometry" />
        </mxCell>
        <mxCell id="9lgOkb08AptDUNzohUUL-12" value="" style="rounded=1;whiteSpace=wrap;html=1;fontSize=18;fillColor=#d5e8d4;strokeColor=#82b366;" parent="1" vertex="1">
          <mxGeometry x="224" y="810" width="210" height="120" as="geometry" />
        </mxCell>
        <mxCell id="9lgOkb08AptDUNzohUUL-13" value="" style="rounded=1;whiteSpace=wrap;html=1;fontSize=18;fillColor=#d5e8d4;strokeColor=#82b366;" parent="1" vertex="1">
          <mxGeometry x="474" y="810" width="210" height="120" as="geometry" />
        </mxCell>
        <mxCell id="9lgOkb08AptDUNzohUUL-14" value="Python Web应用" style="rounded=1;whiteSpace=wrap;html=1;fontSize=18;fillColor=#f8cecc;strokeColor=#b85450;" parent="1" vertex="1">
          <mxGeometry x="224" y="630" width="460" height="60" as="geometry" />
        </mxCell>
        <mxCell id="9lgOkb08AptDUNzohUUL-15" value="VUE框架、Axios框架、Echarts技术等" style="rounded=1;whiteSpace=wrap;html=1;fontSize=18;fillColor=#b1ddf0;strokeColor=#10739e;" parent="1" vertex="1">
          <mxGeometry x="224" y="555" width="460" height="50" as="geometry" />
        </mxCell>
        <mxCell id="9lgOkb08AptDUNzohUUL-16" value="&amp;nbsp;浏览器" style="rounded=1;whiteSpace=wrap;html=1;fontSize=18;fillColor=#fff2cc;strokeColor=#d6b656;" parent="1" vertex="1">
          <mxGeometry x="224" y="467.5" width="460" height="52.5" as="geometry" />
        </mxCell>
        <mxCell id="9lgOkb08AptDUNzohUUL-17" value="" style="rounded=0;whiteSpace=wrap;html=1;fontSize=18;fillColor=none;" parent="1" vertex="1">
          <mxGeometry x="104" y="710" width="620" height="80" as="geometry" />
        </mxCell>
        <mxCell id="9lgOkb08AptDUNzohUUL-18" value="驱动层" style="text;html=1;strokeColor=none;fillColor=none;align=center;verticalAlign=middle;whiteSpace=wrap;rounded=0;fontSize=18;" parent="1" vertex="1">
          <mxGeometry x="104" y="735" width="100" height="30" as="geometry" />
        </mxCell>
        <mxCell id="9lgOkb08AptDUNzohUUL-19" value="py2neo" style="rounded=1;whiteSpace=wrap;html=1;fontSize=18;fillColor=#e1d5e7;strokeColor=#9673a6;" parent="1" vertex="1">
          <mxGeometry x="229" y="725" width="200" height="50" as="geometry" />
        </mxCell>
        <mxCell id="9lgOkb08AptDUNzohUUL-20" value="pymysql" style="rounded=1;whiteSpace=wrap;html=1;fontSize=18;fillColor=#e1d5e7;strokeColor=#9673a6;" parent="1" vertex="1">
          <mxGeometry x="474" y="725" width="200" height="50" as="geometry" />
        </mxCell>
        <mxCell id="9lgOkb08AptDUNzohUUL-21" value="" style="shape=cylinder3;whiteSpace=wrap;html=1;boundedLbl=1;backgroundOutline=1;size=15;fontSize=18;fillColor=none;rotation=-90;" parent="1" vertex="1">
          <mxGeometry x="294" y="790" width="70" height="160" as="geometry" />
        </mxCell>
        <mxCell id="9lgOkb08AptDUNzohUUL-22" value="Neo4j" style="text;html=1;strokeColor=none;fillColor=none;align=center;verticalAlign=middle;whiteSpace=wrap;rounded=0;fontSize=18;" parent="1" vertex="1">
          <mxGeometry x="284" y="860" width="100" height="30" as="geometry" />
        </mxCell>
        <mxCell id="9lgOkb08AptDUNzohUUL-23" value="" style="shape=cylinder3;whiteSpace=wrap;html=1;boundedLbl=1;backgroundOutline=1;size=15;fontSize=18;fillColor=none;rotation=-90;" parent="1" vertex="1">
          <mxGeometry x="554" y="790" width="70" height="160" as="geometry" />
        </mxCell>
        <mxCell id="9lgOkb08AptDUNzohUUL-24" value="MySQL" style="text;html=1;strokeColor=none;fillColor=none;align=center;verticalAlign=middle;whiteSpace=wrap;rounded=0;fontSize=18;" parent="1" vertex="1">
          <mxGeometry x="539" y="860" width="100" height="30" as="geometry" />
        </mxCell>
        <mxCell id="9lgOkb08AptDUNzohUUL-25" value="拓扑图" style="text;html=1;strokeColor=none;fillColor=none;align=center;verticalAlign=middle;whiteSpace=wrap;rounded=0;fontSize=18;horizontal=1;" parent="1" vertex="1">
          <mxGeometry x="766" y="50" width="33" height="312" as="geometry" />
        </mxCell>
        <mxCell id="9lgOkb08AptDUNzohUUL-26" value="系统架构图" style="text;html=1;strokeColor=none;fillColor=none;align=center;verticalAlign=middle;whiteSpace=wrap;rounded=0;fontSize=18;horizontal=1;" parent="1" vertex="1">
          <mxGeometry x="779" y="578" width="33" height="312" as="geometry" />
        </mxCell>
        <mxCell id="9lgOkb08AptDUNzohUUL-27" value="前后端交互设计图" style="text;html=1;strokeColor=none;fillColor=none;align=center;verticalAlign=middle;whiteSpace=wrap;rounded=0;fontSize=18;horizontal=1;" parent="1" vertex="1">
          <mxGeometry x="810" y="1150" width="33" height="312" as="geometry" />
        </mxCell>
        <mxCell id="9lgOkb08AptDUNzohUUL-28" value="静态文件、&lt;br&gt;静态页面&lt;br&gt;&lt;br&gt;&lt;br&gt;&lt;br&gt;&lt;br&gt;&lt;br&gt;&lt;br&gt;动态数据接口，通过axios框架获取数据后动态填充页面&lt;br&gt;" style="rounded=1;whiteSpace=wrap;html=1;fontSize=18;fillColor=none;" parent="1" vertex="1">
          <mxGeometry x="82" y="1199" width="116" height="320" as="geometry" />
        </mxCell>
        <mxCell id="9lgOkb08AptDUNzohUUL-29" value="vue开发服务器" style="rounded=1;whiteSpace=wrap;html=1;fontSize=18;fillColor=none;" parent="1" vertex="1">
          <mxGeometry x="322" y="1199" width="144" height="91" as="geometry" />
        </mxCell>
        <mxCell id="9lgOkb08AptDUNzohUUL-30" value="vue开发服务器" style="rounded=1;whiteSpace=wrap;html=1;fontSize=18;fillColor=none;" parent="1" vertex="1">
          <mxGeometry x="322" y="1428" width="144" height="91" as="geometry" />
        </mxCell>
        <mxCell id="9lgOkb08AptDUNzohUUL-31" value="python web应用&lt;br&gt;提供Restful AIP，业务逻辑和数据交互" style="rounded=1;whiteSpace=wrap;html=1;fontSize=18;fillColor=none;" parent="1" vertex="1">
          <mxGeometry x="602" y="1428" width="144" height="91" as="geometry" />
        </mxCell>
        <mxCell id="9lgOkb08AptDUNzohUUL-33" value="" style="shape=flexArrow;endArrow=classic;startArrow=classic;html=1;rounded=0;fontSize=18;" parent="1" edge="1">
          <mxGeometry width="100" height="100" relative="1" as="geometry">
            <mxPoint x="206" y="1244" as="sourcePoint" />
            <mxPoint x="316" y="1244" as="targetPoint" />
          </mxGeometry>
        </mxCell>
        <mxCell id="9lgOkb08AptDUNzohUUL-34" value="" style="shape=flexArrow;endArrow=classic;startArrow=classic;html=1;rounded=0;fontSize=18;" parent="1" edge="1">
          <mxGeometry width="100" height="100" relative="1" as="geometry">
            <mxPoint x="206" y="1473" as="sourcePoint" />
            <mxPoint x="316" y="1473" as="targetPoint" />
          </mxGeometry>
        </mxCell>
        <mxCell id="9lgOkb08AptDUNzohUUL-35" value="" style="shape=flexArrow;endArrow=classic;startArrow=classic;html=1;rounded=0;fontSize=18;" parent="1" edge="1">
          <mxGeometry width="100" height="100" relative="1" as="geometry">
            <mxPoint x="482" y="1473" as="sourcePoint" />
            <mxPoint x="592" y="1473" as="targetPoint" />
          </mxGeometry>
        </mxCell>
        <mxCell id="9lgOkb08AptDUNzohUUL-45" value="" style="edgeStyle=none;rounded=0;orthogonalLoop=1;jettySize=auto;html=1;strokeColor=default;fontSize=18;" parent="1" source="9lgOkb08AptDUNzohUUL-36" target="9lgOkb08AptDUNzohUUL-38" edge="1">
          <mxGeometry relative="1" as="geometry" />
        </mxCell>
        <mxCell id="9lgOkb08AptDUNzohUUL-36" value="读取csv、json、excel文件" style="rounded=0;whiteSpace=wrap;html=1;fontSize=18;fillColor=none;" parent="1" vertex="1">
          <mxGeometry x="454" y="1590" width="170" height="60" as="geometry" />
        </mxCell>
        <mxCell id="9lgOkb08AptDUNzohUUL-37" value="导入Neo4J 流程图" style="text;html=1;strokeColor=none;fillColor=none;align=center;verticalAlign=middle;whiteSpace=wrap;rounded=0;fontSize=18;horizontal=1;" parent="1" vertex="1">
          <mxGeometry x="810" y="1598" width="33" height="312" as="geometry" />
        </mxCell>
        <mxCell id="9lgOkb08AptDUNzohUUL-46" value="" style="edgeStyle=none;rounded=0;orthogonalLoop=1;jettySize=auto;html=1;strokeColor=default;fontSize=18;" parent="1" source="9lgOkb08AptDUNzohUUL-38" target="9lgOkb08AptDUNzohUUL-39" edge="1">
          <mxGeometry relative="1" as="geometry" />
        </mxCell>
        <mxCell id="9lgOkb08AptDUNzohUUL-38" value="解析数据" style="rounded=0;whiteSpace=wrap;html=1;fontSize=18;fillColor=none;" parent="1" vertex="1">
          <mxGeometry x="456" y="1700" width="166" height="60" as="geometry" />
        </mxCell>
        <mxCell id="9lgOkb08AptDUNzohUUL-47" value="" style="edgeStyle=none;rounded=0;orthogonalLoop=1;jettySize=auto;html=1;strokeColor=default;fontSize=18;" parent="1" source="9lgOkb08AptDUNzohUUL-39" target="9lgOkb08AptDUNzohUUL-40" edge="1">
          <mxGeometry relative="1" as="geometry" />
        </mxCell>
        <mxCell id="9lgOkb08AptDUNzohUUL-39" value="构造neo4j语句" style="rounded=0;whiteSpace=wrap;html=1;fontSize=18;fillColor=none;" parent="1" vertex="1">
          <mxGeometry x="456" y="1810" width="166" height="60" as="geometry" />
        </mxCell>
        <mxCell id="9lgOkb08AptDUNzohUUL-40" value="导入neo4j数库" style="rounded=0;whiteSpace=wrap;html=1;fontSize=18;fillColor=none;" parent="1" vertex="1">
          <mxGeometry x="456" y="1920" width="166" height="60" as="geometry" />
        </mxCell>
        <mxCell id="VJ5FJE8yriXw24Q7ZGjo-1" value="" style="rounded=0;whiteSpace=wrap;html=1;dashed=1;dashPattern=8 8;fillColor=none;" parent="1" vertex="1">
          <mxGeometry x="1195" y="42" width="340" height="320" as="geometry" />
        </mxCell>
        <mxCell id="VJ5FJE8yriXw24Q7ZGjo-2" value="" style="edgeStyle=orthogonalEdgeStyle;rounded=0;orthogonalLoop=1;jettySize=auto;html=1;" parent="1" source="VJ5FJE8yriXw24Q7ZGjo-4" target="VJ5FJE8yriXw24Q7ZGjo-7" edge="1">
          <mxGeometry relative="1" as="geometry" />
        </mxCell>
        <mxCell id="VJ5FJE8yriXw24Q7ZGjo-3" value="访问" style="edgeLabel;html=1;align=center;verticalAlign=middle;resizable=0;points=[];" parent="VJ5FJE8yriXw24Q7ZGjo-2" vertex="1" connectable="0">
          <mxGeometry x="-0.2286" y="-1" relative="1" as="geometry">
            <mxPoint y="1" as="offset" />
          </mxGeometry>
        </mxCell>
        <mxCell id="VJ5FJE8yriXw24Q7ZGjo-4" value="用户" style="html=1;verticalLabelPosition=bottom;align=center;labelBackgroundColor=#ffffff;verticalAlign=top;strokeWidth=2;strokeColor=#0080F0;shadow=0;dashed=0;shape=mxgraph.ios7.icons.user;" parent="1" vertex="1">
          <mxGeometry x="855" y="152" width="50" height="50" as="geometry" />
        </mxCell>
        <mxCell id="VJ5FJE8yriXw24Q7ZGjo-5" value="" style="edgeStyle=none;rounded=0;orthogonalLoop=1;jettySize=auto;html=1;" parent="1" source="VJ5FJE8yriXw24Q7ZGjo-7" target="VJ5FJE8yriXw24Q7ZGjo-14" edge="1">
          <mxGeometry relative="1" as="geometry" />
        </mxCell>
        <mxCell id="VJ5FJE8yriXw24Q7ZGjo-6" value="HTTP" style="edgeLabel;html=1;align=center;verticalAlign=middle;resizable=0;points=[];" parent="VJ5FJE8yriXw24Q7ZGjo-5" vertex="1" connectable="0">
          <mxGeometry x="-0.0911" y="3" relative="1" as="geometry">
            <mxPoint as="offset" />
          </mxGeometry>
        </mxCell>
        <mxCell id="VJ5FJE8yriXw24Q7ZGjo-7" value="Web浏览器" style="points=[];aspect=fixed;html=1;align=center;shadow=0;dashed=0;image;image=img/lib/allied_telesis/computer_and_terminals/Personal_Computer.svg;" parent="1" vertex="1">
          <mxGeometry x="975" y="146.1" width="45.6" height="61.800000000000004" as="geometry" />
        </mxCell>
        <mxCell id="VJ5FJE8yriXw24Q7ZGjo-8" value="MySQL" style="shape=image;verticalLabelPosition=bottom;labelBackgroundColor=default;verticalAlign=top;aspect=fixed;imageAspect=0;image=data:image/png,iVBORw0KGgoAAAANSUhEUgAAADAAAAAwCAYAAABXAvmHAAAACXBIWXMAAAsTAAALEwEAmpwYAAAGOElEQVR4nO2XbWhb1xnHn3vOuZJsWU5LNkq2QdotoZRug9GxNwgMChtsKduXdGG00HY0y1yrluTYsnV179HLfX+Tru04uW1GWcv6IdQb+7BRlq3QUtiHBrqFSXlr1jbJ5jpO3MSJ7TkvO+MoiecXuYR+GAroBw869z5/Hf3/90q65wC0adOmTZs2bdrcRQRBt+gHfxArI2+QSpCBMBThrsL3N4mVwIcgiBJ/tE+sBG8TP3iF+NXdYFkJuBsQK0GBBMF3lk6Mjm4UverTolt9Ezv+Y9DyhKFI3ODXwJgAUs9mGOr9SeO853Vgxx/Htqc1eq0M8So/x7b/vcYBD7G8Z3kD2HAr0NLwq235B9Zr8wDIcHdBK0Mstw9b7qNNm2EoIs3+CxjG/dCyHDyIse68uF4bq+b3cckcg5bFsh5EutOzbp8xARW1d0DXN0IrgjTncaKa3/pEjVJ+GsvFArQiSDN/Sor6N6FkPoSKeqapiNIIGqZHIJvdAK2GWDIeQQXtZ1hRLaSU/wppr6OZDmXzzwiD0m9gaGgLtBZMwHLxV0gqvIVzxcdQTqHrSjPZrwn9WU9ID1hAaQxahiy9H+Xyz/AhyuafgIH81k/Up9NbhGRmFHrSrXY3bjEwsJV/76EZPamHUW9qUOhNh0Jv6vdAKQLijXxD9KoO8YIsfzo2ex/x/W2iV6kSp9oL9KU7un2MAmK/7H6cHej22YEN4Y0Xb1civB4m9nDN1f3dX78WdrvXwkR4lde+RPjvfYlwcV/CWAzjX+Gahf1du+fH4+HCWPcWIZlyhd70y9DfH1/6INGrTotulfHCbsVd48QMvkAcf444PiO2z0TLv6PH+9Uw8erVMMEW9yf2LoZdOxo1frMW9sW/Oz8W2zy/t2txfm/84txYvHd+vGvH/GjXjsuj8b7LY/ErsyPxhY9Hog9cGu2cmB3pZLMjsW1AKRGSqVEhmXoNenq6bl5dp8KI453Hll8jtj/LNxzLjWDTNYnlMWx6f+OvxHSlOwkwP9Y1Nbc3zlgITTcsl6qdP7g00skuBh2vrO7NVGMvzFQ72IVqx44LfnTiQiXGzvmxbUuC55//MkpmJNiV3cBXfoyY3rRoubuI6TFiuH1LQjrWRQx3hujuJDGcLDYchnRbQrqzG2nOIaytXMdg1RpHmnUINO2+i0Hn2YtBJ7tcjd/XLMBMNbL9vB9j037spdW9j9xoMOVG2aQj7py0oxOTToT90yL/C3CbVOqLQAyXEd2e5n9NWLOnsGafbPw4Gg8aO4k1myHNyiHVTjXGqi1h1fSxajGkGU8snw+VjMO4ZDAolzef86LPTnuxK1Nu5MNzbuTQFC8n8seP7Ghw3uv4/KQV2T5pc2ORNQHOGmJw1hTZaVPcedogE6cNwj7UmgRoXDXNZlizpm+OLZUbw6r5Qx4Cl62TuGzO8bUIKuopbg4VdAkXdR8XNYaotjKAUj6MlTIDqdxY358IIHrGFr/6L0N8hNdZk9AzpsjOGOR3H+h4Ozf2gY7XBHhfxdV/qJi9r6Gdp8po4lQZs1NFWCdA2WS4pDcCgKpuwkV9ERW01zHVfowLKsNUHWmYk9UUN4eUkoTloo/lIkP50soAOXoY5ygDSVqxQVkyVoKHuLH3yuitUyW8/b0yYieLwpoAxwtC5XhBYMcp7DxWECaOUYHV5PUCUJVhuTy9dJwvvYzlwn9wvngU5+l1kMpfumUuxc2hnCLhYbmEh2WGsvmBFQEGc4fRoMSgv3mAY0X4ETfGTdVl+PZRCqxO4cjpNHScGIbP1hX4U12Bek2Gd+oKcNOP1mR44dZ4d/MAEmV4WFkKAPn8VjycP4Oy+RtCVtKXmUtxc2gwJ0GGfkYYGD6I9gxfQXuyH6P+oRmUGZxB/dnrKJNl0N+/uS7DyboCM8urpsB8XYbf1nOwiQEINRn0ugwXajIsNDQyzHGzDcMKvP13CpFjEjxQl+HPXFNTYHb1nABDQ/dCH72nSbaVm+pkMtrQrl6H8FXiL/gcAw+ivswkSqZvwHPPbXyXwj1HhuDe28WPm15BADhBofu27iiFz9UUeKMuw7WjeXhquW71nLzg0yAk0xpKpmbWVG/6XZRMPfmpJm3Tpk2bNm3atIH/O/8F3QzYxkVGwuEAAAAASUVORK5CYII=;" parent="1" vertex="1">
          <mxGeometry x="1425" y="156" width="50" height="50" as="geometry" />
        </mxCell>
        <mxCell id="VJ5FJE8yriXw24Q7ZGjo-12" value="" style="edgeStyle=none;rounded=0;orthogonalLoop=1;jettySize=auto;html=1;" parent="1" source="VJ5FJE8yriXw24Q7ZGjo-14" edge="1">
          <mxGeometry relative="1" as="geometry">
            <mxPoint x="1265" y="177.72059800664454" as="targetPoint" />
          </mxGeometry>
        </mxCell>
        <mxCell id="VJ5FJE8yriXw24Q7ZGjo-13" value="HTTP" style="edgeLabel;html=1;align=center;verticalAlign=middle;resizable=0;points=[];" parent="VJ5FJE8yriXw24Q7ZGjo-12" vertex="1" connectable="0">
          <mxGeometry x="-0.0441" y="1" relative="1" as="geometry">
            <mxPoint as="offset" />
          </mxGeometry>
        </mxCell>
        <mxCell id="VJ5FJE8yriXw24Q7ZGjo-14" value="Node JS" style="shape=image;verticalLabelPosition=bottom;labelBackgroundColor=default;verticalAlign=top;aspect=fixed;imageAspect=0;image=data:image/png,iVBORw0KGgoAAAANSUhEUgAAADAAAAAwCAYAAABXAvmHAAAACXBIWXMAAAsTAAALEwEAmpwYAAAE0ElEQVR4nO1ZaYhbVRR+03Hfd6mO8859M7XSH1Up/hCKFRUR0T8t0boWJznnzVTb0l+KaEcQcV+Kv4KtM++chEIQoS4V/OGCtYoLImqpIrgUB63SsVrrUtvIecnEl5tM5k0mmTylH4Q8knfv/b5771nuuY5zCP9TnJun07wc3Wg4c5PHg2c4/xX0FNYeDUx3AuOvRqioH2D60witn79h4HgnyTBM1xrBryaI13yYvgMmcoaH5zhJQl8+swgYt1pk/wbBZ0Fwgz5H/wOht43gRYnY57o1bIJG6A03l7lg4j03T+cZpi2WwINGqNC3aeicWSe+KEuHg+AaYNxTNbNMO4H9W52i0zXZFgOhLy2xe43gfe7IiqNmhbwJ8AojtN0i8ZuSUANuXjx+G4pvFxptA8gNuNPtr1dorhHMGsEDVp+vmdH0wpYR780Pnaz7HBj3W9vlAy+gxS1xAEJvVa9oKIr7N952etMdL3l9+DB1eSC0y5qhsZa7wqLTZZhShunr6rFwt8aUBYXUEdPqT5WD4PvVrg//AKYHFxRWHue0CWfyzccawfsN4z5rtd87K7j91NgdgVDOmvXne/NDnjNLcEd8UNuytlUQuwNg+rm8hPs8ocvbyrYBIMAlJTcbihh34iISMT91WuTBQDLXhTbFtFq/Xaarekb9s6fkwvTRBJ+2CND9Wfbje9TwK38UUt0e01CdwFW0vZlhXNY5ARGClWhaSHWr3TQiXisEH0+MACO40iK3FYTuNYIDkKPr3YAGlbCx3WYuc01CBNC7EfIPNEorTGSlQPDVZAhgGqv8FtDFjdsPzi+nJDreL3Yi2CEB+Flka0yZMoPgGiP4EAiuS4QAjdh1jPQLEHpOtxQEeIsbDF4YJ0XoiIBySrAthufZD4KfGKFH+zjdnxgBkbzfN0zv1KTMk4lhWp0YAVHo75rjhxmn0N16VjaMb6rRWvnOAfusPOsCtAZUTo1Temhp1LZ//aoj1feD0DcRIQ93VIBhvCMyo9k44wHTPREB3FEBXuBfXSHDNKYGHUPAM//aAj3WUQHlytz3kVXY5nHmsqpEL5L3g+C6aFlG3+2ogNKguKye5wGmHw3jjrAN4+463qiQGC8UGifTzqncp6nEA3q6XmDrqBvVWOAFtFTJhRlpKRrv0pUAoc+B6UVP6K5ezphJuTQpYLzc6Pd6KW5cATMFCF1ZKpqVKhSxGxqhESvAvKLHwpoXi05XtOyiM94K4l7enweCL1j2szF2Bz2F9Cl2tRmE/jKMT2qhqzJQQEujBjpT4v2y6gTD+Ej5PqHqQBQdNx4KqW7IZRAEf7CMbq9h2gxML1kD1XiQ2BgenmPYT1e733DS1F5IuTTdt1egEzW42LNSW/Tyz2+q/4AWhwd7a7VB6Al3ZMVJTROvGSjvzzNMTxnBnywB213xL51uf3rIMUKbJk5jkcl4WU9pTrsQJmCj6YWQo0smy+EbYW6WjtFSfMW7yETagTs0DXE6Ab28M4xrQehjrTjULfwWnS6XcbneA1grOK5tW+XBpg29GwhThKrZpA+jh/m6JfQw/8HsjErorYIWftUzWQQPAqNoUbZOXlR1h5YYaCHYqkgUp3OHlghU7sCqj4ux79ASA43mnvg3qOHqc6f5HILTJvwDFDl0Rr2QsrgAAAAASUVORK5CYII=;" parent="1" vertex="1">
          <mxGeometry x="1115" y="147.5" width="59" height="59" as="geometry" />
        </mxCell>
        <mxCell id="VJ5FJE8yriXw24Q7ZGjo-16" style="rounded=0;orthogonalLoop=1;jettySize=auto;html=1;exitX=1;exitY=0.5;exitDx=0;exitDy=0;entryX=0;entryY=0.5;entryDx=0;entryDy=0;" parent="1" source="VJ5FJE8yriXw24Q7ZGjo-19" target="VJ5FJE8yriXw24Q7ZGjo-8" edge="1">
          <mxGeometry relative="1" as="geometry">
            <mxPoint x="1325" y="162.89999999999998" as="sourcePoint" />
            <mxPoint x="1415" y="176" as="targetPoint" />
          </mxGeometry>
        </mxCell>
        <mxCell id="VJ5FJE8yriXw24Q7ZGjo-17" value="pymysql" style="edgeLabel;html=1;align=center;verticalAlign=middle;resizable=0;points=[];" parent="VJ5FJE8yriXw24Q7ZGjo-16" vertex="1" connectable="0">
          <mxGeometry x="0.1506" relative="1" as="geometry">
            <mxPoint as="offset" />
          </mxGeometry>
        </mxCell>
        <mxCell id="VJ5FJE8yriXw24Q7ZGjo-18" value="拓扑图" style="text;html=1;strokeColor=none;fillColor=none;align=center;verticalAlign=middle;whiteSpace=wrap;rounded=0;fontSize=18;horizontal=1;" parent="1" vertex="1">
          <mxGeometry x="1555.6" y="50" width="33" height="312" as="geometry" />
        </mxCell>
        <mxCell id="VJ5FJE8yriXw24Q7ZGjo-19" value="python web&lt;br&gt;" style="shape=image;html=1;verticalAlign=top;verticalLabelPosition=bottom;labelBackgroundColor=#ffffff;imageAspect=0;aspect=fixed;image=https://cdn2.iconfinder.com/data/icons/boxicons-logos/24/bxl-django-128.png" parent="1" vertex="1">
          <mxGeometry x="1255" y="144" width="74" height="74" as="geometry" />
        </mxCell>
        <mxCell id="VJ5FJE8yriXw24Q7ZGjo-21" value="" style="rounded=0;whiteSpace=wrap;html=1;fillColor=none;" parent="1" vertex="1">
          <mxGeometry x="975.6" y="440" width="620" height="340" as="geometry" />
        </mxCell>
        <mxCell id="VJ5FJE8yriXw24Q7ZGjo-22" value="" style="rounded=0;whiteSpace=wrap;html=1;fillColor=none;" parent="1" vertex="1">
          <mxGeometry x="975.6" y="440" width="620" height="90" as="geometry" />
        </mxCell>
        <mxCell id="VJ5FJE8yriXw24Q7ZGjo-23" value="" style="rounded=0;whiteSpace=wrap;html=1;fillColor=none;" parent="1" vertex="1">
          <mxGeometry x="975.6" y="530" width="620" height="80" as="geometry" />
        </mxCell>
        <mxCell id="VJ5FJE8yriXw24Q7ZGjo-24" value="前端" style="text;html=1;strokeColor=none;fillColor=none;align=center;verticalAlign=middle;whiteSpace=wrap;rounded=0;fontSize=18;" parent="1" vertex="1">
          <mxGeometry x="985.6" y="470" width="60" height="30" as="geometry" />
        </mxCell>
        <mxCell id="VJ5FJE8yriXw24Q7ZGjo-25" value="" style="rounded=0;whiteSpace=wrap;html=1;fillColor=none;" parent="1" vertex="1">
          <mxGeometry x="975.6" y="940" width="620" height="80" as="geometry" />
        </mxCell>
        <mxCell id="VJ5FJE8yriXw24Q7ZGjo-26" value="" style="rounded=0;whiteSpace=wrap;html=1;fillColor=none;" parent="1" vertex="1">
          <mxGeometry x="975.6" y="780" width="620" height="160" as="geometry" />
        </mxCell>
        <mxCell id="VJ5FJE8yriXw24Q7ZGjo-27" value="展示层" style="text;html=1;strokeColor=none;fillColor=none;align=center;verticalAlign=middle;whiteSpace=wrap;rounded=0;fontSize=18;" parent="1" vertex="1">
          <mxGeometry x="995.6" y="555" width="60" height="30" as="geometry" />
        </mxCell>
        <mxCell id="VJ5FJE8yriXw24Q7ZGjo-28" value="应用服务层" style="text;html=1;strokeColor=none;fillColor=none;align=center;verticalAlign=middle;whiteSpace=wrap;rounded=0;fontSize=18;" parent="1" vertex="1">
          <mxGeometry x="985.6" y="640" width="100" height="30" as="geometry" />
        </mxCell>
        <mxCell id="VJ5FJE8yriXw24Q7ZGjo-29" value="数据存储层" style="text;html=1;strokeColor=none;fillColor=none;align=center;verticalAlign=middle;whiteSpace=wrap;rounded=0;fontSize=18;" parent="1" vertex="1">
          <mxGeometry x="985.6" y="860" width="100" height="30" as="geometry" />
        </mxCell>
        <mxCell id="VJ5FJE8yriXw24Q7ZGjo-30" value="服务端" style="text;html=1;strokeColor=none;fillColor=none;align=center;verticalAlign=middle;whiteSpace=wrap;rounded=0;fontSize=18;" parent="1" vertex="1">
          <mxGeometry x="995.6" y="965" width="60" height="30" as="geometry" />
        </mxCell>
        <mxCell id="VJ5FJE8yriXw24Q7ZGjo-31" value="windows 服务器" style="rounded=1;whiteSpace=wrap;html=1;fontSize=18;fillColor=#fff2cc;strokeColor=#d6b656;" parent="1" vertex="1">
          <mxGeometry x="1095.6" y="960" width="460" height="40" as="geometry" />
        </mxCell>
        <mxCell id="VJ5FJE8yriXw24Q7ZGjo-33" value="" style="rounded=1;whiteSpace=wrap;html=1;fontSize=18;fillColor=#d5e8d4;strokeColor=#82b366;" parent="1" vertex="1">
          <mxGeometry x="1100" y="800" width="455.6" height="120" as="geometry" />
        </mxCell>
        <mxCell id="VJ5FJE8yriXw24Q7ZGjo-34" value="Python Web应用、scikit-learn、协同过滤推荐算法" style="rounded=1;whiteSpace=wrap;html=1;fontSize=18;fillColor=#f8cecc;strokeColor=#b85450;" parent="1" vertex="1">
          <mxGeometry x="1095.6" y="620" width="460" height="60" as="geometry" />
        </mxCell>
        <mxCell id="VJ5FJE8yriXw24Q7ZGjo-35" value="VUE框架、Axios框架、Echarts技术等" style="rounded=1;whiteSpace=wrap;html=1;fontSize=18;fillColor=#b1ddf0;strokeColor=#10739e;" parent="1" vertex="1">
          <mxGeometry x="1095.6" y="545" width="460" height="50" as="geometry" />
        </mxCell>
        <mxCell id="VJ5FJE8yriXw24Q7ZGjo-36" value="&amp;nbsp;浏览器" style="rounded=1;whiteSpace=wrap;html=1;fontSize=18;fillColor=#fff2cc;strokeColor=#d6b656;" parent="1" vertex="1">
          <mxGeometry x="1095.6" y="457.5" width="460" height="52.5" as="geometry" />
        </mxCell>
        <mxCell id="VJ5FJE8yriXw24Q7ZGjo-37" value="" style="rounded=0;whiteSpace=wrap;html=1;fontSize=18;fillColor=none;" parent="1" vertex="1">
          <mxGeometry x="975.6" y="700" width="620" height="80" as="geometry" />
        </mxCell>
        <mxCell id="VJ5FJE8yriXw24Q7ZGjo-38" value="驱动层" style="text;html=1;strokeColor=none;fillColor=none;align=center;verticalAlign=middle;whiteSpace=wrap;rounded=0;fontSize=18;" parent="1" vertex="1">
          <mxGeometry x="975.6" y="725" width="100" height="30" as="geometry" />
        </mxCell>
        <mxCell id="VJ5FJE8yriXw24Q7ZGjo-40" value="pymysql" style="rounded=1;whiteSpace=wrap;html=1;fontSize=18;fillColor=#e1d5e7;strokeColor=#9673a6;" parent="1" vertex="1">
          <mxGeometry x="1100" y="715" width="445.6" height="50" as="geometry" />
        </mxCell>
        <mxCell id="VJ5FJE8yriXw24Q7ZGjo-43" value="" style="shape=cylinder3;whiteSpace=wrap;html=1;boundedLbl=1;backgroundOutline=1;size=15;fontSize=18;fillColor=none;rotation=-90;" parent="1" vertex="1">
          <mxGeometry x="1292.8" y="780" width="70" height="160" as="geometry" />
        </mxCell>
        <mxCell id="VJ5FJE8yriXw24Q7ZGjo-44" value="MySQL" style="text;html=1;strokeColor=none;fillColor=none;align=center;verticalAlign=middle;whiteSpace=wrap;rounded=0;fontSize=18;" parent="1" vertex="1">
          <mxGeometry x="1292.8" y="845" width="100" height="30" as="geometry" />
        </mxCell>
        <mxCell id="VJ5FJE8yriXw24Q7ZGjo-52" value="麦麦大数据设计" style="text;html=1;strokeColor=none;fillColor=none;align=center;verticalAlign=middle;whiteSpace=wrap;rounded=0;fontSize=20;" parent="1" vertex="1">
          <mxGeometry x="786" y="1099" width="202" height="62" as="geometry" />
        </mxCell>
        <mxCell id="VJ5FJE8yriXw24Q7ZGjo-53" value="麦麦大数据设计" style="text;html=1;strokeColor=none;fillColor=none;align=center;verticalAlign=middle;whiteSpace=wrap;rounded=0;fontSize=20;" parent="1" vertex="1">
          <mxGeometry x="773" y="1440" width="202" height="62" as="geometry" />
        </mxCell>
        <mxCell id="zX4o2FxtQs5faRb5KjX7-1" value="麦麦大数据设计" style="text;html=1;strokeColor=#666666;fillColor=#f5f5f5;align=center;verticalAlign=middle;whiteSpace=wrap;rounded=0;fontSize=20;fontColor=#333333;" parent="1" vertex="1">
          <mxGeometry x="753" y="436" width="202" height="62" as="geometry" />
        </mxCell>
        <mxCell id="BG5VA7yIgCvSBxyyl6Ll-1" value="" style="rounded=0;whiteSpace=wrap;html=1;dashed=1;dashPattern=8 8;fillColor=none;" vertex="1" parent="1">
          <mxGeometry x="2009" y="42" width="340" height="320" as="geometry" />
        </mxCell>
        <mxCell id="BG5VA7yIgCvSBxyyl6Ll-2" value="" style="edgeStyle=orthogonalEdgeStyle;rounded=0;orthogonalLoop=1;jettySize=auto;html=1;" edge="1" parent="1" source="BG5VA7yIgCvSBxyyl6Ll-4" target="BG5VA7yIgCvSBxyyl6Ll-7">
          <mxGeometry relative="1" as="geometry" />
        </mxCell>
        <mxCell id="BG5VA7yIgCvSBxyyl6Ll-3" value="访问" style="edgeLabel;html=1;align=center;verticalAlign=middle;resizable=0;points=[];" vertex="1" connectable="0" parent="BG5VA7yIgCvSBxyyl6Ll-2">
          <mxGeometry x="-0.2286" y="-1" relative="1" as="geometry">
            <mxPoint y="1" as="offset" />
          </mxGeometry>
        </mxCell>
        <mxCell id="BG5VA7yIgCvSBxyyl6Ll-4" value="用户" style="html=1;verticalLabelPosition=bottom;align=center;labelBackgroundColor=#ffffff;verticalAlign=top;strokeWidth=2;strokeColor=#0080F0;shadow=0;dashed=0;shape=mxgraph.ios7.icons.user;" vertex="1" parent="1">
          <mxGeometry x="1669" y="152" width="50" height="50" as="geometry" />
        </mxCell>
        <mxCell id="BG5VA7yIgCvSBxyyl6Ll-5" value="" style="edgeStyle=none;rounded=0;orthogonalLoop=1;jettySize=auto;html=1;" edge="1" parent="1" source="BG5VA7yIgCvSBxyyl6Ll-7" target="BG5VA7yIgCvSBxyyl6Ll-14">
          <mxGeometry relative="1" as="geometry" />
        </mxCell>
        <mxCell id="BG5VA7yIgCvSBxyyl6Ll-6" value="HTTP" style="edgeLabel;html=1;align=center;verticalAlign=middle;resizable=0;points=[];" vertex="1" connectable="0" parent="BG5VA7yIgCvSBxyyl6Ll-5">
          <mxGeometry x="-0.0911" y="3" relative="1" as="geometry">
            <mxPoint as="offset" />
          </mxGeometry>
        </mxCell>
        <mxCell id="BG5VA7yIgCvSBxyyl6Ll-7" value="Web浏览器" style="points=[];aspect=fixed;html=1;align=center;shadow=0;dashed=0;image;image=img/lib/allied_telesis/computer_and_terminals/Personal_Computer.svg;" vertex="1" parent="1">
          <mxGeometry x="1789" y="146.1" width="45.6" height="61.800000000000004" as="geometry" />
        </mxCell>
        <mxCell id="BG5VA7yIgCvSBxyyl6Ll-8" value="MySQL" style="shape=image;verticalLabelPosition=bottom;labelBackgroundColor=default;verticalAlign=top;aspect=fixed;imageAspect=0;image=data:image/png,iVBORw0KGgoAAAANSUhEUgAAADAAAAAwCAYAAABXAvmHAAAACXBIWXMAAAsTAAALEwEAmpwYAAAGOElEQVR4nO2XbWhb1xnHn3vOuZJsWU5LNkq2QdotoZRug9GxNwgMChtsKduXdGG00HY0y1yrluTYsnV179HLfX+Tru04uW1GWcv6IdQb+7BRlq3QUtiHBrqFSXlr1jbJ5jpO3MSJ7TkvO+MoiecXuYR+GAroBw869z5/Hf3/90q65wC0adOmTZs2bdrcRQRBt+gHfxArI2+QSpCBMBThrsL3N4mVwIcgiBJ/tE+sBG8TP3iF+NXdYFkJuBsQK0GBBMF3lk6Mjm4UverTolt9Ezv+Y9DyhKFI3ODXwJgAUs9mGOr9SeO853Vgxx/Htqc1eq0M8So/x7b/vcYBD7G8Z3kD2HAr0NLwq235B9Zr8wDIcHdBK0Mstw9b7qNNm2EoIs3+CxjG/dCyHDyIse68uF4bq+b3cckcg5bFsh5EutOzbp8xARW1d0DXN0IrgjTncaKa3/pEjVJ+GsvFArQiSDN/Sor6N6FkPoSKeqapiNIIGqZHIJvdAK2GWDIeQQXtZ1hRLaSU/wppr6OZDmXzzwiD0m9gaGgLtBZMwHLxV0gqvIVzxcdQTqHrSjPZrwn9WU9ID1hAaQxahiy9H+Xyz/AhyuafgIH81k/Up9NbhGRmFHrSrXY3bjEwsJV/76EZPamHUW9qUOhNh0Jv6vdAKQLijXxD9KoO8YIsfzo2ex/x/W2iV6kSp9oL9KU7un2MAmK/7H6cHej22YEN4Y0Xb1civB4m9nDN1f3dX78WdrvXwkR4lde+RPjvfYlwcV/CWAzjX+Gahf1du+fH4+HCWPcWIZlyhd70y9DfH1/6INGrTotulfHCbsVd48QMvkAcf444PiO2z0TLv6PH+9Uw8erVMMEW9yf2LoZdOxo1frMW9sW/Oz8W2zy/t2txfm/84txYvHd+vGvH/GjXjsuj8b7LY/ErsyPxhY9Hog9cGu2cmB3pZLMjsW1AKRGSqVEhmXoNenq6bl5dp8KI453Hll8jtj/LNxzLjWDTNYnlMWx6f+OvxHSlOwkwP9Y1Nbc3zlgITTcsl6qdP7g00skuBh2vrO7NVGMvzFQ72IVqx44LfnTiQiXGzvmxbUuC55//MkpmJNiV3cBXfoyY3rRoubuI6TFiuH1LQjrWRQx3hujuJDGcLDYchnRbQrqzG2nOIaytXMdg1RpHmnUINO2+i0Hn2YtBJ7tcjd/XLMBMNbL9vB9j037spdW9j9xoMOVG2aQj7py0oxOTToT90yL/C3CbVOqLQAyXEd2e5n9NWLOnsGafbPw4Gg8aO4k1myHNyiHVTjXGqi1h1fSxajGkGU8snw+VjMO4ZDAolzef86LPTnuxK1Nu5MNzbuTQFC8n8seP7Ghw3uv4/KQV2T5pc2ORNQHOGmJw1hTZaVPcedogE6cNwj7UmgRoXDXNZlizpm+OLZUbw6r5Qx4Cl62TuGzO8bUIKuopbg4VdAkXdR8XNYaotjKAUj6MlTIDqdxY358IIHrGFr/6L0N8hNdZk9AzpsjOGOR3H+h4Ozf2gY7XBHhfxdV/qJi9r6Gdp8po4lQZs1NFWCdA2WS4pDcCgKpuwkV9ERW01zHVfowLKsNUHWmYk9UUN4eUkoTloo/lIkP50soAOXoY5ygDSVqxQVkyVoKHuLH3yuitUyW8/b0yYieLwpoAxwtC5XhBYMcp7DxWECaOUYHV5PUCUJVhuTy9dJwvvYzlwn9wvngU5+l1kMpfumUuxc2hnCLhYbmEh2WGsvmBFQEGc4fRoMSgv3mAY0X4ETfGTdVl+PZRCqxO4cjpNHScGIbP1hX4U12Bek2Gd+oKcNOP1mR44dZ4d/MAEmV4WFkKAPn8VjycP4Oy+RtCVtKXmUtxc2gwJ0GGfkYYGD6I9gxfQXuyH6P+oRmUGZxB/dnrKJNl0N+/uS7DyboCM8urpsB8XYbf1nOwiQEINRn0ugwXajIsNDQyzHGzDcMKvP13CpFjEjxQl+HPXFNTYHb1nABDQ/dCH72nSbaVm+pkMtrQrl6H8FXiL/gcAw+ivswkSqZvwHPPbXyXwj1HhuDe28WPm15BADhBofu27iiFz9UUeKMuw7WjeXhquW71nLzg0yAk0xpKpmbWVG/6XZRMPfmpJm3Tpk2bNm3atIH/O/8F3QzYxkVGwuEAAAAASUVORK5CYII=;" vertex="1" parent="1">
          <mxGeometry x="2223" y="62" width="60" height="60" as="geometry" />
        </mxCell>
        <mxCell id="BG5VA7yIgCvSBxyyl6Ll-9" style="rounded=0;orthogonalLoop=1;jettySize=auto;html=1;entryX=0;entryY=0.5;entryDx=0;entryDy=0;" edge="1" parent="1" source="BG5VA7yIgCvSBxyyl6Ll-18" target="BG5VA7yIgCvSBxyyl6Ll-15">
          <mxGeometry relative="1" as="geometry" />
        </mxCell>
        <mxCell id="BG5VA7yIgCvSBxyyl6Ll-10" value="blot" style="edgeLabel;html=1;align=center;verticalAlign=middle;resizable=0;points=[];" vertex="1" connectable="0" parent="BG5VA7yIgCvSBxyyl6Ll-9">
          <mxGeometry x="0.0794" relative="1" as="geometry">
            <mxPoint as="offset" />
          </mxGeometry>
        </mxCell>
        <mxCell id="BG5VA7yIgCvSBxyyl6Ll-12" value="" style="edgeStyle=none;rounded=0;orthogonalLoop=1;jettySize=auto;html=1;entryX=0;entryY=0.5;entryDx=0;entryDy=0;" edge="1" parent="1" source="BG5VA7yIgCvSBxyyl6Ll-14" target="BG5VA7yIgCvSBxyyl6Ll-18">
          <mxGeometry relative="1" as="geometry" />
        </mxCell>
        <mxCell id="BG5VA7yIgCvSBxyyl6Ll-13" value="HTTP" style="edgeLabel;html=1;align=center;verticalAlign=middle;resizable=0;points=[];" vertex="1" connectable="0" parent="BG5VA7yIgCvSBxyyl6Ll-12">
          <mxGeometry x="-0.0441" y="1" relative="1" as="geometry">
            <mxPoint as="offset" />
          </mxGeometry>
        </mxCell>
        <mxCell id="BG5VA7yIgCvSBxyyl6Ll-14" value="Node JS" style="shape=image;verticalLabelPosition=bottom;labelBackgroundColor=default;verticalAlign=top;aspect=fixed;imageAspect=0;image=data:image/png,iVBORw0KGgoAAAANSUhEUgAAADAAAAAwCAYAAABXAvmHAAAACXBIWXMAAAsTAAALEwEAmpwYAAAE0ElEQVR4nO1ZaYhbVRR+03Hfd6mO8859M7XSH1Up/hCKFRUR0T8t0boWJznnzVTb0l+KaEcQcV+Kv4KtM++chEIQoS4V/OGCtYoLImqpIrgUB63SsVrrUtvIecnEl5tM5k0mmTylH4Q8knfv/b5771nuuY5zCP9TnJun07wc3Wg4c5PHg2c4/xX0FNYeDUx3AuOvRqioH2D60witn79h4HgnyTBM1xrBryaI13yYvgMmcoaH5zhJQl8+swgYt1pk/wbBZ0Fwgz5H/wOht43gRYnY57o1bIJG6A03l7lg4j03T+cZpi2WwINGqNC3aeicWSe+KEuHg+AaYNxTNbNMO4H9W52i0zXZFgOhLy2xe43gfe7IiqNmhbwJ8AojtN0i8ZuSUANuXjx+G4pvFxptA8gNuNPtr1dorhHMGsEDVp+vmdH0wpYR780Pnaz7HBj3W9vlAy+gxS1xAEJvVa9oKIr7N952etMdL3l9+DB1eSC0y5qhsZa7wqLTZZhShunr6rFwt8aUBYXUEdPqT5WD4PvVrg//AKYHFxRWHue0CWfyzccawfsN4z5rtd87K7j91NgdgVDOmvXne/NDnjNLcEd8UNuytlUQuwNg+rm8hPs8ocvbyrYBIMAlJTcbihh34iISMT91WuTBQDLXhTbFtFq/Xaarekb9s6fkwvTRBJ+2CND9Wfbje9TwK38UUt0e01CdwFW0vZlhXNY5ARGClWhaSHWr3TQiXisEH0+MACO40iK3FYTuNYIDkKPr3YAGlbCx3WYuc01CBNC7EfIPNEorTGSlQPDVZAhgGqv8FtDFjdsPzi+nJDreL3Yi2CEB+Flka0yZMoPgGiP4EAiuS4QAjdh1jPQLEHpOtxQEeIsbDF4YJ0XoiIBySrAthufZD4KfGKFH+zjdnxgBkbzfN0zv1KTMk4lhWp0YAVHo75rjhxmn0N16VjaMb6rRWvnOAfusPOsCtAZUTo1Temhp1LZ//aoj1feD0DcRIQ93VIBhvCMyo9k44wHTPREB3FEBXuBfXSHDNKYGHUPAM//aAj3WUQHlytz3kVXY5nHmsqpEL5L3g+C6aFlG3+2ogNKguKye5wGmHw3jjrAN4+463qiQGC8UGifTzqncp6nEA3q6XmDrqBvVWOAFtFTJhRlpKRrv0pUAoc+B6UVP6K5ezphJuTQpYLzc6Pd6KW5cATMFCF1ZKpqVKhSxGxqhESvAvKLHwpoXi05XtOyiM94K4l7enweCL1j2szF2Bz2F9Cl2tRmE/jKMT2qhqzJQQEujBjpT4v2y6gTD+Ej5PqHqQBQdNx4KqW7IZRAEf7CMbq9h2gxML1kD1XiQ2BgenmPYT1e733DS1F5IuTTdt1egEzW42LNSW/Tyz2+q/4AWhwd7a7VB6Al3ZMVJTROvGSjvzzNMTxnBnywB213xL51uf3rIMUKbJk5jkcl4WU9pTrsQJmCj6YWQo0smy+EbYW6WjtFSfMW7yETagTs0DXE6Ab28M4xrQehjrTjULfwWnS6XcbneA1grOK5tW+XBpg29GwhThKrZpA+jh/m6JfQw/8HsjErorYIWftUzWQQPAqNoUbZOXlR1h5YYaCHYqkgUp3OHlghU7sCqj4ux79ASA43mnvg3qOHqc6f5HILTJvwDFDl0Rr2QsrgAAAAASUVORK5CYII=;" vertex="1" parent="1">
          <mxGeometry x="1929" y="147.5" width="59" height="59" as="geometry" />
        </mxCell>
        <mxCell id="BG5VA7yIgCvSBxyyl6Ll-15" value="Neo4J" style="shape=image;verticalLabelPosition=bottom;labelBackgroundColor=default;verticalAlign=top;aspect=fixed;imageAspect=0;image=data:image/png,iVBORw0KGgoAAAANSUhEUgAAADAAAAAwCAYAAABXAvmHAAAACXBIWXMAAAsTAAALEwEAmpwYAAAH8klEQVR4nM2ZfXDT5h3HtY69/LPdut1AspSwcht3zW67dd1WOsv2aikQNtpCZ9kuhdi5sI7L2uPorjiOFSuUJJKhIUfHEefFiQlxXmxLpmkaQh5l7DpujJRy+6P9ox2s626lZWspLS0tJLF3susgx5IsJ2bwu3v+kmx9P783Pc9PEKTDnGFLs73b9B4VNCbdAvmpWyDP1vDEzifHq74C3c7GMJZlzpDpdVuHMZVdboGUr7OuqAVGmFEcoflRxBc9D3uHr6LN4+9jLEhinJiSFsqCd1AWvISxIFjWChxwy/i3/y8Ajl7Tn+XiFQBSbp78i8EvtMC7BlKZNTiHNh+bRjnxWhYgb7HiLMaKL2ABcSPEMHfcFPFbD5vvoYK54hUBBDK1NbF2M1w/dB32DM5gDVFU+n1Z69RaVQDZQlnwKspNPgKlUl8oKYAzbB5YKF4NwC0QUcQXew3xDr+T/f1K5sRXpTRCWXECC0xaMBY8jXHinAYMKGfBqtIB9JpO6QVwCeQ04ouL8K5ICvHzT97beeZLKCfukYTB+6ZWZv8T48SxvAhw4F2MBTGUBc0oO0WVDMDRZ5osAgAgdOxUtg7Q5mPznjaw4J55AFY8lUkb8e3yfS+0VQXdffaQ6Q2qG//Q3mm8tmXEes4tkMdcPLnHzVt/vCQAZ59pexEpRMPekUsyALmH30RZ0JT2Pgs+uosb8zn6Hhi1dRrnFv539Yg11zE8+VLN0cr7Fg1h78EvFwJwCeTl1a29DtiT7UK5ALLO84b5UP1D9m78ipJjbAoAn3e5pIsnmooWj9Dxg/e3+WuoLuOMOgBxzTm4ySb3vhKAFIX1XdusVKdxVk28TQ3gxrPa9Ytvev7RtBjP4Mz3A/vqHN34PxcCuATylQf7t1TB3ui/5OLzAcBMxf5eq70L/0RLvK0gAJlyJay1ugBg7/DlG4IiKcQX/2sF99wTjtADTa7E2o0/a2MpQyN/RAJcKD4PgBXDzl4zKCTepgdAIK/UPm9doe39RuFZJVHSQjyRNJDadSWAn7Y/u47qMCZLAeDWk0qId/hKjiBPJGlo5CNII38I9gwpelwNAOXE886wuUePeJt+gItUlPqiovgVu/lf5Xmdjk3Nw/mE/UUChBw9pn+XFoCU2usaZe/7bryM5gF80ensdQMt9BQHAOrtXfjVUgNU80S1cgS8Q1cVc98XO4P4Yn+U0qkoABY8TgXzX1hLjkDCuitPfDk7dmemSJVERVKwd+gzPeJzijgA6qhO/FqpAdwC+UR++vjjtSrikwYm8fN0CjUKzxUFwIqt9m78g9KnUOUmBQC+QzF9Gob/k71nJZP4RlEAnDjmCJlPlhSAJ5PbeAuWB2Cg+UHl3j+QhJn4LzMR4PuLrIGrDx/eVFdigNPKHYiOj2kKqx+cLboG0p1o8jd606haB4CLtzrVAI4VALgONwy/pacTLdjMvUX1Vf7O1oEvHYAnT0MpSPnoCdPxLi3vL28R03sQg5+vKRJAKuYDzpB5YkkAPPneVmH9akjNVviFp1VFeYc/yN5XXj92p3zvrw8AJLHA5DZHyPzK4gCIi+vCOx7CODGuCrCciZNaohCabytn4qsQOn666Ahk1hzKgp3OPsthWxBP6gcgTla097sxVrwo7a1UAaSxhv5CjSwGIBuNceMfWiqdIdM0FcRnlQBcPDnj5skT649s34ayYEh2MDquDiAVckP0XEHxdPw4xKTuMPiPSrWQLBrg80MOxoEj2N6JKipUtcUZNu919OLxx6LWHY6hjRu+1y48Il1HWXA9d4YkNmgD0PGDhQAwZuKb2fth78iFxQHkHDc/lc7LKCdOY5z4OsqKn6lELmloBepFfONNOzinBWCgBUa618C8uDon5dKFHUlK+6liALBMlxKl+siOXVQmeJOa4mVROKFZzJ5IKnPoiSSlcSLi40d/yLU/RYWtHmf4F3vdcXKdObj7fpQF1VLOFh4tim9XMNEvS8/+VuDk1zBW/FjJ+2WByZ/oAoCfGbtbLbflRYzQsfive4mAvcv0UbYIqSAu7yCvuhLE499pGbWgrPgPDc+ey85FMxM9cEkhQiO6xM9HwReLqYr3RJKrngnvcPTgFxa2wQUA2XW2smvHjzBOPKvUWrFMHXQbAmADxoGoQoTeN+yZKCsKAGKYZbmTCVmBMpEmqgv/WKmPqwBIvfyCsat5DcaC/853ofRo/cQylBN/q9Fyk2UseBhajC1vTBDpPJcDNMT+5giZ/q72JlUHkLYCxJkyqVAzXn1Z/ixsHiwvdQ5ASzHYz++Upw55qKZeayugCSCQqc2xDdullEA58TLWLKa/I2Ac+IHy2B1EoWhUefpQjBloPiC1SMQXfdPeYzq/FACXQLycfoFl8v5S+rMTJ36S/24Qj0oFDZXK4MbYdoROeCiVPYxeAOk0tXo/v7NAWx347oHx0n883NJfeVeh7XBBAIFM3dfRVqe2vUBZ0QPdLNscxu8tBQAZ+n2NwnbiNQM3lR4c3DSTvgmXAmBNcPeDslw/L7XRkua7lhUakReuAeLDuw/GV2IsoJGW48aSf5ksZM6w6cUlRmAAupVWO2hdoTUq1AYgZmuOWiugW22PHsZb1SYMWgAugfRDt4ttDluixQC4BKJbdRxyq8zZb6GpTnxGE4AnLrl5og66Xe2xI1Vfd/aZeu09+LvSF0iqE09KO08XT/zJLRBP1UbXzh8/b5b9D/fRGmLs7B/EAAAAAElFTkSuQmCC;" vertex="1" parent="1">
          <mxGeometry x="2229" y="232" width="48" height="48" as="geometry" />
        </mxCell>
        <mxCell id="BG5VA7yIgCvSBxyyl6Ll-16" style="rounded=0;orthogonalLoop=1;jettySize=auto;html=1;entryX=0;entryY=0.75;entryDx=0;entryDy=0;" edge="1" parent="1" source="BG5VA7yIgCvSBxyyl6Ll-18" target="BG5VA7yIgCvSBxyyl6Ll-8">
          <mxGeometry relative="1" as="geometry">
            <mxPoint x="2139" y="155.5" as="sourcePoint" />
            <mxPoint x="2229" y="209.5" as="targetPoint" />
          </mxGeometry>
        </mxCell>
        <mxCell id="BG5VA7yIgCvSBxyyl6Ll-17" value="pymysql" style="edgeLabel;html=1;align=center;verticalAlign=middle;resizable=0;points=[];" vertex="1" connectable="0" parent="BG5VA7yIgCvSBxyyl6Ll-16">
          <mxGeometry x="0.1506" relative="1" as="geometry">
            <mxPoint as="offset" />
          </mxGeometry>
        </mxCell>
        <mxCell id="BG5VA7yIgCvSBxyyl6Ll-18" value="python web&lt;br&gt;" style="shape=image;html=1;verticalAlign=top;verticalLabelPosition=bottom;labelBackgroundColor=#ffffff;imageAspect=0;aspect=fixed;image=https://cdn2.iconfinder.com/data/icons/boxicons-logos/24/bxl-django-128.png" vertex="1" parent="1">
          <mxGeometry x="2076" y="140.5" width="74" height="74" as="geometry" />
        </mxCell>
        <mxCell id="BG5VA7yIgCvSBxyyl6Ll-20" value="" style="rounded=0;whiteSpace=wrap;html=1;dashed=1;dashPattern=8 8;fillColor=none;" vertex="1" parent="1">
          <mxGeometry x="2045" y="430" width="311" height="320" as="geometry" />
        </mxCell>
        <mxCell id="BG5VA7yIgCvSBxyyl6Ll-21" value="" style="edgeStyle=orthogonalEdgeStyle;rounded=0;orthogonalLoop=1;jettySize=auto;html=1;" edge="1" parent="1" source="BG5VA7yIgCvSBxyyl6Ll-23" target="BG5VA7yIgCvSBxyyl6Ll-26">
          <mxGeometry relative="1" as="geometry" />
        </mxCell>
        <mxCell id="BG5VA7yIgCvSBxyyl6Ll-22" value="访问" style="edgeLabel;html=1;align=center;verticalAlign=middle;resizable=0;points=[];" vertex="1" connectable="0" parent="BG5VA7yIgCvSBxyyl6Ll-21">
          <mxGeometry x="-0.2286" y="-1" relative="1" as="geometry">
            <mxPoint y="1" as="offset" />
          </mxGeometry>
        </mxCell>
        <mxCell id="BG5VA7yIgCvSBxyyl6Ll-23" value="用户" style="html=1;verticalLabelPosition=bottom;align=center;labelBackgroundColor=#ffffff;verticalAlign=top;strokeWidth=2;strokeColor=#0080F0;shadow=0;dashed=0;shape=mxgraph.ios7.icons.user;" vertex="1" parent="1">
          <mxGeometry x="1705" y="540" width="50" height="50" as="geometry" />
        </mxCell>
        <mxCell id="BG5VA7yIgCvSBxyyl6Ll-24" value="" style="edgeStyle=none;rounded=0;orthogonalLoop=1;jettySize=auto;html=1;" edge="1" parent="1" source="BG5VA7yIgCvSBxyyl6Ll-26" target="BG5VA7yIgCvSBxyyl6Ll-30">
          <mxGeometry relative="1" as="geometry" />
        </mxCell>
        <mxCell id="BG5VA7yIgCvSBxyyl6Ll-25" value="HTTP" style="edgeLabel;html=1;align=center;verticalAlign=middle;resizable=0;points=[];" vertex="1" connectable="0" parent="BG5VA7yIgCvSBxyyl6Ll-24">
          <mxGeometry x="-0.0911" y="3" relative="1" as="geometry">
            <mxPoint as="offset" />
          </mxGeometry>
        </mxCell>
        <mxCell id="BG5VA7yIgCvSBxyyl6Ll-26" value="Web浏览器" style="points=[];aspect=fixed;html=1;align=center;shadow=0;dashed=0;image;image=img/lib/allied_telesis/computer_and_terminals/Personal_Computer.svg;" vertex="1" parent="1">
          <mxGeometry x="1825" y="534.1" width="45.6" height="61.800000000000004" as="geometry" />
        </mxCell>
        <mxCell id="BG5VA7yIgCvSBxyyl6Ll-27" value="MySQL" style="shape=image;verticalLabelPosition=bottom;labelBackgroundColor=default;verticalAlign=top;aspect=fixed;imageAspect=0;image=data:image/png,iVBORw0KGgoAAAANSUhEUgAAADAAAAAwCAYAAABXAvmHAAAACXBIWXMAAAsTAAALEwEAmpwYAAAGOElEQVR4nO2XbWhb1xnHn3vOuZJsWU5LNkq2QdotoZRug9GxNwgMChtsKduXdGG00HY0y1yrluTYsnV179HLfX+Tru04uW1GWcv6IdQb+7BRlq3QUtiHBrqFSXlr1jbJ5jpO3MSJ7TkvO+MoiecXuYR+GAroBw869z5/Hf3/90q65wC0adOmTZs2bdrcRQRBt+gHfxArI2+QSpCBMBThrsL3N4mVwIcgiBJ/tE+sBG8TP3iF+NXdYFkJuBsQK0GBBMF3lk6Mjm4UverTolt9Ezv+Y9DyhKFI3ODXwJgAUs9mGOr9SeO853Vgxx/Htqc1eq0M8So/x7b/vcYBD7G8Z3kD2HAr0NLwq235B9Zr8wDIcHdBK0Mstw9b7qNNm2EoIs3+CxjG/dCyHDyIse68uF4bq+b3cckcg5bFsh5EutOzbp8xARW1d0DXN0IrgjTncaKa3/pEjVJ+GsvFArQiSDN/Sor6N6FkPoSKeqapiNIIGqZHIJvdAK2GWDIeQQXtZ1hRLaSU/wppr6OZDmXzzwiD0m9gaGgLtBZMwHLxV0gqvIVzxcdQTqHrSjPZrwn9WU9ID1hAaQxahiy9H+Xyz/AhyuafgIH81k/Up9NbhGRmFHrSrXY3bjEwsJV/76EZPamHUW9qUOhNh0Jv6vdAKQLijXxD9KoO8YIsfzo2ex/x/W2iV6kSp9oL9KU7un2MAmK/7H6cHej22YEN4Y0Xb1civB4m9nDN1f3dX78WdrvXwkR4lde+RPjvfYlwcV/CWAzjX+Gahf1du+fH4+HCWPcWIZlyhd70y9DfH1/6INGrTotulfHCbsVd48QMvkAcf444PiO2z0TLv6PH+9Uw8erVMMEW9yf2LoZdOxo1frMW9sW/Oz8W2zy/t2txfm/84txYvHd+vGvH/GjXjsuj8b7LY/ErsyPxhY9Hog9cGu2cmB3pZLMjsW1AKRGSqVEhmXoNenq6bl5dp8KI453Hll8jtj/LNxzLjWDTNYnlMWx6f+OvxHSlOwkwP9Y1Nbc3zlgITTcsl6qdP7g00skuBh2vrO7NVGMvzFQ72IVqx44LfnTiQiXGzvmxbUuC55//MkpmJNiV3cBXfoyY3rRoubuI6TFiuH1LQjrWRQx3hujuJDGcLDYchnRbQrqzG2nOIaytXMdg1RpHmnUINO2+i0Hn2YtBJ7tcjd/XLMBMNbL9vB9j037spdW9j9xoMOVG2aQj7py0oxOTToT90yL/C3CbVOqLQAyXEd2e5n9NWLOnsGafbPw4Gg8aO4k1myHNyiHVTjXGqi1h1fSxajGkGU8snw+VjMO4ZDAolzef86LPTnuxK1Nu5MNzbuTQFC8n8seP7Ghw3uv4/KQV2T5pc2ORNQHOGmJw1hTZaVPcedogE6cNwj7UmgRoXDXNZlizpm+OLZUbw6r5Qx4Cl62TuGzO8bUIKuopbg4VdAkXdR8XNYaotjKAUj6MlTIDqdxY358IIHrGFr/6L0N8hNdZk9AzpsjOGOR3H+h4Ozf2gY7XBHhfxdV/qJi9r6Gdp8po4lQZs1NFWCdA2WS4pDcCgKpuwkV9ERW01zHVfowLKsNUHWmYk9UUN4eUkoTloo/lIkP50soAOXoY5ygDSVqxQVkyVoKHuLH3yuitUyW8/b0yYieLwpoAxwtC5XhBYMcp7DxWECaOUYHV5PUCUJVhuTy9dJwvvYzlwn9wvngU5+l1kMpfumUuxc2hnCLhYbmEh2WGsvmBFQEGc4fRoMSgv3mAY0X4ETfGTdVl+PZRCqxO4cjpNHScGIbP1hX4U12Bek2Gd+oKcNOP1mR44dZ4d/MAEmV4WFkKAPn8VjycP4Oy+RtCVtKXmUtxc2gwJ0GGfkYYGD6I9gxfQXuyH6P+oRmUGZxB/dnrKJNl0N+/uS7DyboCM8urpsB8XYbf1nOwiQEINRn0ugwXajIsNDQyzHGzDcMKvP13CpFjEjxQl+HPXFNTYHb1nABDQ/dCH72nSbaVm+pkMtrQrl6H8FXiL/gcAw+ivswkSqZvwHPPbXyXwj1HhuDe28WPm15BADhBofu27iiFz9UUeKMuw7WjeXhquW71nLzg0yAk0xpKpmbWVG/6XZRMPfmpJm3Tpk2bNm3atIH/O/8F3QzYxkVGwuEAAAAASUVORK5CYII=;" vertex="1" parent="1">
          <mxGeometry x="2271" y="540.9" width="50" height="50" as="geometry" />
        </mxCell>
        <mxCell id="BG5VA7yIgCvSBxyyl6Ll-28" value="" style="edgeStyle=none;rounded=0;orthogonalLoop=1;jettySize=auto;html=1;entryX=0;entryY=0.5;entryDx=0;entryDy=0;" edge="1" parent="1" source="BG5VA7yIgCvSBxyyl6Ll-30" target="BG5VA7yIgCvSBxyyl6Ll-35">
          <mxGeometry relative="1" as="geometry">
            <mxPoint x="2115" y="565.7205980066445" as="targetPoint" />
          </mxGeometry>
        </mxCell>
        <mxCell id="BG5VA7yIgCvSBxyyl6Ll-29" value="HTTP" style="edgeLabel;html=1;align=center;verticalAlign=middle;resizable=0;points=[];" vertex="1" connectable="0" parent="BG5VA7yIgCvSBxyyl6Ll-28">
          <mxGeometry x="-0.0441" y="1" relative="1" as="geometry">
            <mxPoint as="offset" />
          </mxGeometry>
        </mxCell>
        <mxCell id="BG5VA7yIgCvSBxyyl6Ll-30" value="Node JS" style="shape=image;verticalLabelPosition=bottom;labelBackgroundColor=default;verticalAlign=top;aspect=fixed;imageAspect=0;image=data:image/png,iVBORw0KGgoAAAANSUhEUgAAADAAAAAwCAYAAABXAvmHAAAACXBIWXMAAAsTAAALEwEAmpwYAAAE0ElEQVR4nO1ZaYhbVRR+03Hfd6mO8859M7XSH1Up/hCKFRUR0T8t0boWJznnzVTb0l+KaEcQcV+Kv4KtM++chEIQoS4V/OGCtYoLImqpIrgUB63SsVrrUtvIecnEl5tM5k0mmTylH4Q8knfv/b5771nuuY5zCP9TnJun07wc3Wg4c5PHg2c4/xX0FNYeDUx3AuOvRqioH2D60witn79h4HgnyTBM1xrBryaI13yYvgMmcoaH5zhJQl8+swgYt1pk/wbBZ0Fwgz5H/wOht43gRYnY57o1bIJG6A03l7lg4j03T+cZpi2WwINGqNC3aeicWSe+KEuHg+AaYNxTNbNMO4H9W52i0zXZFgOhLy2xe43gfe7IiqNmhbwJ8AojtN0i8ZuSUANuXjx+G4pvFxptA8gNuNPtr1dorhHMGsEDVp+vmdH0wpYR780Pnaz7HBj3W9vlAy+gxS1xAEJvVa9oKIr7N952etMdL3l9+DB1eSC0y5qhsZa7wqLTZZhShunr6rFwt8aUBYXUEdPqT5WD4PvVrg//AKYHFxRWHue0CWfyzccawfsN4z5rtd87K7j91NgdgVDOmvXne/NDnjNLcEd8UNuytlUQuwNg+rm8hPs8ocvbyrYBIMAlJTcbihh34iISMT91WuTBQDLXhTbFtFq/Xaarekb9s6fkwvTRBJ+2CND9Wfbje9TwK38UUt0e01CdwFW0vZlhXNY5ARGClWhaSHWr3TQiXisEH0+MACO40iK3FYTuNYIDkKPr3YAGlbCx3WYuc01CBNC7EfIPNEorTGSlQPDVZAhgGqv8FtDFjdsPzi+nJDreL3Yi2CEB+Flka0yZMoPgGiP4EAiuS4QAjdh1jPQLEHpOtxQEeIsbDF4YJ0XoiIBySrAthufZD4KfGKFH+zjdnxgBkbzfN0zv1KTMk4lhWp0YAVHo75rjhxmn0N16VjaMb6rRWvnOAfusPOsCtAZUTo1Temhp1LZ//aoj1feD0DcRIQ93VIBhvCMyo9k44wHTPREB3FEBXuBfXSHDNKYGHUPAM//aAj3WUQHlytz3kVXY5nHmsqpEL5L3g+C6aFlG3+2ogNKguKye5wGmHw3jjrAN4+463qiQGC8UGifTzqncp6nEA3q6XmDrqBvVWOAFtFTJhRlpKRrv0pUAoc+B6UVP6K5ezphJuTQpYLzc6Pd6KW5cATMFCF1ZKpqVKhSxGxqhESvAvKLHwpoXi05XtOyiM94K4l7enweCL1j2szF2Bz2F9Cl2tRmE/jKMT2qhqzJQQEujBjpT4v2y6gTD+Ej5PqHqQBQdNx4KqW7IZRAEf7CMbq9h2gxML1kD1XiQ2BgenmPYT1e733DS1F5IuTTdt1egEzW42LNSW/Tyz2+q/4AWhwd7a7VB6Al3ZMVJTROvGSjvzzNMTxnBnywB213xL51uf3rIMUKbJk5jkcl4WU9pTrsQJmCj6YWQo0smy+EbYW6WjtFSfMW7yETagTs0DXE6Ab28M4xrQehjrTjULfwWnS6XcbneA1grOK5tW+XBpg29GwhThKrZpA+jh/m6JfQw/8HsjErorYIWftUzWQQPAqNoUbZOXlR1h5YYaCHYqkgUp3OHlghU7sCqj4ux79ASA43mnvg3qOHqc6f5HILTJvwDFDl0Rr2QsrgAAAAASUVORK5CYII=;" vertex="1" parent="1">
          <mxGeometry x="1965" y="535.5" width="59" height="59" as="geometry" />
        </mxCell>
        <mxCell id="BG5VA7yIgCvSBxyyl6Ll-31" style="rounded=0;orthogonalLoop=1;jettySize=auto;html=1;entryX=0;entryY=0.5;entryDx=0;entryDy=0;exitX=1;exitY=0.5;exitDx=0;exitDy=0;" edge="1" parent="1" source="BG5VA7yIgCvSBxyyl6Ll-35" target="BG5VA7yIgCvSBxyyl6Ll-27">
          <mxGeometry relative="1" as="geometry">
            <mxPoint x="2187" y="569" as="sourcePoint" />
            <mxPoint x="2265" y="564" as="targetPoint" />
          </mxGeometry>
        </mxCell>
        <mxCell id="BG5VA7yIgCvSBxyyl6Ll-32" value="pymysql" style="edgeLabel;html=1;align=center;verticalAlign=middle;resizable=0;points=[];" vertex="1" connectable="0" parent="BG5VA7yIgCvSBxyyl6Ll-31">
          <mxGeometry x="0.1506" relative="1" as="geometry">
            <mxPoint as="offset" />
          </mxGeometry>
        </mxCell>
        <mxCell id="BG5VA7yIgCvSBxyyl6Ll-35" value="Python Web" style="shape=image;verticalLabelPosition=bottom;labelBackgroundColor=default;verticalAlign=top;aspect=fixed;imageAspect=0;image=data:image/png,iVBORw0KGgoAAAANSUhEUgAAADIAAAAyCAYAAAAeP4ixAAAACXBIWXMAAAsTAAALEwEAmpwYAAADIElEQVR4nO3XbcjfUxzH8dc2dK0hxojcZdawGObC3JW7ctvQRhRNbtMiJPLA5p7N0J54QimZmzBs7h/oSpGiPTBGIpI1NUrygG3o1Odfv/5+u/5/rj34N+ddV9fvnN/5/c75nO/3fL6/P5VKpVKpVCqVyv+R/TDJNsBDOB9DfY6f0OP+rrgTC8a4rmG8isP7GVwi8Rm+wnM4rI/xH2ATPsRLeB8/4YuMuRmbce8YREzAC/gLs/t54HT8hmdwPTZgKfbokYplggsafVPwSqNdRN5tbEzCnziu18Dp2ckfs6u34UwcgXl4EZNbntuxRUhhu8b1a1tBiES+p5CXsRhn569E5BbMx1zsiQP6FHJq15gi5B5bR8jsXoNKfo9gbSJyMXbANJw1ynMdIUsTudvxcIuQ5hnZGQ/iWfyAyxr39sfreAPf4NwuIcfjKLyZ9T6FXZqTlYn+wLe4GjPSvztO6EPI47gmJrGwRch9jXZxsSdzvQhvNe4twf25LmZzRYuQgyK0Nc2OzcCRpElpdzitDyHFsju7fWGLkM7immyPx/Buo+/yrKNEa2rX+E15z4au9f3D4t7B17gW++LknJd5/0JIG0XIA432jKTEsthqMyKFE/EJfsclXUKW4228N1oNuxW/4hGsTPEptjdzlGo/pQ8hK2MkhXFYn80q3JCFdZiT/+PxREyo096czd0bPyearRyKz7EGV8WlyoGfiFO2kBp3RcgqnNMypuTz9/iykXKrU3gfxYqczXLGCh/j+RTSYjoXpf/KzLM8JaHUvI0xqTPaxCzJA2uTaqsSwkXZze5aMSvOdiQOaXnfgZn0mIaB7BSL3ivtqY13l02blY3r3Jf3H517nf6ZMaJ9bGEHy058h0vxacI5NNoBG1TmYF2iUrz86aTYcL/fOoPCeFwX5xhJfq9OGOd3FbCBZyJuTOX9Jd5dDuJuMYW5XYWyFKeTDCjjcFM+B9bH18v5uSP9i1PFl6XSLki0SoU/zwAyOUVqYeMbaE3ErYvLbUwN+ih1o1MnBpah2Oj0fAsNR+TB28pP5EqlUqlUKpVKpVLxH/gbR4StD37x4x4AAAAASUVORK5CYII=;" vertex="1" parent="1">
          <mxGeometry x="2124" y="535.9" width="60" height="60" as="geometry" />
        </mxCell>
      </root>
    </mxGraphModel>
  </diagram>
</mxfile>
